SplineFontDB: 3.0
FontName: Topmarks-Book
FullName: Topmarks Book
FamilyName: Topmarks
Weight: Book
Copyright: Copyright (c) 2012-13 by vernon adams. All rights reserved.
Version: 1
ItalicAngle: 0
UnderlinePosition: 0
UnderlineWidth: 0
Ascent: 800
Descent: 200
UFOAscent: 1638
UFODescent: -410
LayerCount: 2
Layer: 0 0 "Back"  1
Layer: 1 0 "Fore"  0
FSType: 0
OS2Version: 0
OS2_WeightWidthSlopeOnly: 0
OS2_UseTypoMetrics: 1
CreationTime: 1359155204
ModificationTime: 1359155387
PfmFamily: 33
TTFWeight: 400
TTFWidth: 5
LineGap: 0
VLineGap: 0
OS2TypoAscent: 800
OS2TypoAOffset: 0
OS2TypoDescent: -200
OS2TypoDOffset: 0
OS2TypoLinegap: 0
OS2WinAscent: 800
OS2WinAOffset: 0
OS2WinDescent: 200
OS2WinDOffset: 0
HheadAscent: 800
HheadAOffset: 0
HheadDescent: -200
HheadDOffset: 0
OS2FamilyClass: 2053
OS2Vendor: 'newt'
MarkAttachClasses: 1
DEI: 91125
LangName: 1033 "" "" "" "" "" "" "" "Topmarks is a trademark of vernon adams." "vernon adams" "vernon adams" "Copyright (c) 2011 by vernon adams. All rights reserved." 
Encoding: UnicodeBmp
UnicodeInterp: none
NameList: AGL For New Fonts
DisplaySize: -48
AntiAlias: 1
FitToEm: 1
WinInfo: 64 16 4
BeginPrivate: 4
BlueValues 47 [-26 0 1026 1051 1438 1453 1456 1483 1490 1526]
OtherBlues 11 [-464 -427]
StemSnapH 20 [20 125 137 142 148]
StemSnapV 9 [165 172]
EndPrivate
BeginChars: 65546 333

StartChar: A
Encoding: 65 65 1
Width: 711
VWidth: 0
Flags: HW
LayerCount: 2
UndoRedoHistory
Layer: 0
Undoes
EndUndoes
Redoes
EndRedoes
EndUndoRedoHistory
UndoRedoHistory
Layer: 1
Undoes
EndUndoes
Redoes
EndRedoes
EndUndoRedoHistory
Fore
SplineSet
308 728 m 1
 6 0 l 1
 100 0 l 1
 178 198 l 1
 526 198 l 1
 608 0 l 1
 704 0 l 1
 401 728 l 1
 308 728 l 1
380 575 m 1
 497 272 l 1
 205 272 l 1
 328 574 l 1
 336 595 346 626 354 649 c 1
 361 626 371 596 380 575 c 1
641 5 m 0
356 728 m 0
EndSplineSet
EndChar

StartChar: AE
Encoding: 198 198 2
Width: 1013
VWidth: 0
Flags: HW
LayerCount: 2
UndoRedoHistory
Layer: 0
Undoes
EndUndoes
Redoes
EndRedoes
EndUndoRedoHistory
UndoRedoHistory
Layer: 1
Undoes
EndUndoes
Redoes
EndRedoes
EndUndoRedoHistory
Fore
SplineSet
2 0 m 1
 100 0 l 1
 214 199 l 1
 536 199 l 1
 552 0 l 1
 950 0 l 1
 950 74 l 1
 628 74 l 1
 608 336 l 1
 918 336 l 1
 918 410 l 1
 598 410 l 1
 580 654 l 1
 939 654 l 1
 939 728 l 1
 418 728 l 1
 2 0 l 1
253 273 m 1
 472 654 l 1
 497 654 l 1
 527 273 l 1
 253 273 l 1
507 0 m 0
EndSplineSet
EndChar

StartChar: B
Encoding: 66 66 12
Width: 647
VWidth: 0
Flags: HW
LayerCount: 2
UndoRedoHistory
Layer: 0
Undoes
EndUndoes
Redoes
EndRedoes
EndUndoRedoHistory
UndoRedoHistory
Layer: 1
Undoes
EndUndoes
Redoes
EndRedoes
EndUndoRedoHistory
Fore
SplineSet
87 728 m 1
 87 0 l 1
 326 0 l 2
 500 0 606 58 606 202 c 0
 606 313 553 364 454 384 c 1
 534 411 572 458 572 552 c 0
 572 678 480 728 292 728 c 2
 87 728 l 1
515 203 m 0
 515 111 456 74 322 74 c 2
 173 74 l 1
 173 342 l 1
 300 342 l 2
 454 342 515 301 515 203 c 0
481 538 m 0
 481 448 425 412 284 412 c 2
 173 412 l 1
 173 654 l 1
 292 654 l 2
 428 654 481 621 481 538 c 0
EndSplineSet
EndChar

StartChar: C
Encoding: 67 67 13
Width: 694
VWidth: 0
Flags: HW
LayerCount: 2
UndoRedoHistory
Layer: 0
Undoes
EndUndoes
Redoes
EndRedoes
EndUndoRedoHistory
UndoRedoHistory
Layer: 1
Undoes
EndUndoes
Redoes
EndRedoes
EndUndoRedoHistory
Fore
SplineSet
56 363 m 0
 56 143 188 -11 408 -11 c 0
 508 -11 588 16 648 64 c 1
 619 134 l 1
 569 90 500 65 410 65 c 0
 232 65 148 190 148 362 c 0
 148 538 241 666 418 666 c 0
 486 666 551 641 601 603 c 1
 640 666 l 1
 585 707 519 742 409 742 c 0
 195 742 56 584 56 363 c 0
400 728 m 0
421 0 m 0
EndSplineSet
EndChar

StartChar: D
Encoding: 68 68 17
Width: 760
VWidth: 0
Flags: HW
LayerCount: 2
UndoRedoHistory
Layer: 0
Undoes
EndUndoes
Redoes
EndRedoes
EndUndoRedoHistory
UndoRedoHistory
Layer: 1
Undoes
EndUndoes
Redoes
EndRedoes
EndUndoRedoHistory
Fore
SplineSet
87 728 m 1
 87 0 l 1
 296 0 l 2
 538 0 706 120 706 362 c 0
 706 636 518 728 244 728 c 2
 87 728 l 1
614 360 m 0
 614 170 496 74 304 74 c 2
 173 74 l 1
 173 654 l 1
 255 654 l 2
 480 654 614 584 614 360 c 0
127 386 m 0
372 728 m 0
EndSplineSet
EndChar

StartChar: Delta
Encoding: 916 916 18
Width: 656
VWidth: 0
Flags: HW
LayerCount: 2
UndoRedoHistory
Layer: 0
Undoes
EndUndoes
Redoes
EndRedoes
EndUndoRedoHistory
UndoRedoHistory
Layer: 1
Undoes
EndUndoes
Redoes
EndRedoes
EndUndoRedoHistory
Fore
SplineSet
20 0 m 1
 632 0 l 1
 632 40 l 1
 372 714 l 1
 280 714 l 1
 20 40 l 1
 20 0 l 1
134 81 m 1
 308 556 l 1
 324 609 l 1
 340 556 l 1
 516 81 l 1
 134 81 l 1
EndSplineSet
EndChar

StartChar: E
Encoding: 69 69 19
Width: 592
VWidth: 0
Flags: HW
LayerCount: 2
UndoRedoHistory
Layer: 0
Undoes
EndUndoes
Redoes
EndRedoes
EndUndoRedoHistory
UndoRedoHistory
Layer: 1
Undoes
EndUndoes
Redoes
EndRedoes
EndUndoRedoHistory
Fore
SplineSet
87 728 m 1
 87 0 l 1
 546 0 l 1
 546 74 l 1
 173 74 l 1
 173 336 l 1
 502 336 l 1
 502 410 l 1
 173 410 l 1
 173 654 l 1
 520 654 l 1
 520 728 l 1
 87 728 l 1
532 5 m 0
328 0 m 0
322 728 m 0
EndSplineSet
EndChar

StartChar: Eth
Encoding: 208 208 26
Width: 772
VWidth: 0
Flags: HW
LayerCount: 2
UndoRedoHistory
Layer: 0
Undoes
EndUndoes
Redoes
EndRedoes
EndUndoRedoHistory
UndoRedoHistory
Layer: 1
Undoes
EndUndoes
Redoes
EndRedoes
EndUndoRedoHistory
Fore
SplineSet
182 74 m 1
 182 329 l 1
 286 329 l 1
 286 398 l 1
 182 398 l 1
 182 654 l 1
 264 654 l 2
 323 654 375 649 420 639 c 0
 554 609 624 524 624 360 c 0
 624 318 617 280 605 245 c 0
 565 134 465 74 313 74 c 2
 182 74 l 1
96 0 m 1
 305 0 l 2
 369 0 427 9 478 26 c 0
 617 72 715 180 715 362 c 0
 715 636 528 728 254 728 c 2
 96 728 l 1
 96 398 l 1
 0 398 l 1
 0 329 l 1
 96 329 l 1
 96 0 l 1
EndSplineSet
EndChar

StartChar: Euro
Encoding: 8364 8364 27
Width: 594
VWidth: 0
Flags: HW
LayerCount: 2
UndoRedoHistory
Layer: 0
Undoes
EndUndoes
Redoes
EndRedoes
EndUndoRedoHistory
UndoRedoHistory
Layer: 1
Undoes
EndUndoes
Redoes
EndRedoes
EndUndoRedoHistory
Fore
SplineSet
376 -10 m 0
 446 -10 498 8 542 38 c 1
 542 126 l 1
 498 92 450 62 384 62 c 0
 260 62 211 148 196 258 c 1
 467 258 l 1
 476 327 l 1
 189 327 l 1
 188 351 l 2
 188 360 188 370 188 380 c 1
 188 386 l 2
 188 388 188 390 188 392 c 1
 484 392 l 1
 494 461 l 1
 198 461 l 1
 219 558 270 652 388 652 c 0
 457 652 505 616 535 570 c 1
 553 665 l 1
 514 702 464 724 392 724 c 0
 352 724 316 717 284 704 c 0
 188 664 130 577 109 461 c 1
 48 461 l 1
 38 392 l 1
 100 392 l 1
 100 380 98 371 98 360 c 0
 98 348 99 336 100 327 c 1
 49 327 l 1
 39 258 l 1
 106 258 l 1
 125 104 204 -10 376 -10 c 0
EndSplineSet
EndChar

StartChar: F
Encoding: 70 70 28
Width: 550
VWidth: 0
Flags: HW
LayerCount: 2
UndoRedoHistory
Layer: 0
Undoes
EndUndoes
Redoes
EndRedoes
EndUndoRedoHistory
UndoRedoHistory
Layer: 1
Undoes
EndUndoes
Redoes
EndRedoes
EndUndoRedoHistory
Fore
SplineSet
87 728 m 1
 87 0 l 1
 173 0 l 1
 173 334 l 1
 492 334 l 1
 492 408 l 1
 173 408 l 1
 173 654 l 1
 508 654 l 1
 508 728 l 1
 87 728 l 1
EndSplineSet
EndChar

StartChar: G
Encoding: 71 71 29
Width: 755
VWidth: 0
Flags: HW
LayerCount: 2
UndoRedoHistory
Layer: 0
Undoes
EndUndoes
Redoes
EndRedoes
EndUndoRedoHistory
UndoRedoHistory
Layer: 1
Undoes
EndUndoes
Redoes
EndRedoes
EndUndoRedoHistory
Fore
SplineSet
56 350 m 0
 56 119 190 -11 422 -11 c 0
 522 -11 602 6 674 40 c 1
 674 378 l 1
 408 378 l 1
 408 304 l 1
 588 304 l 1
 588 89 l 1
 543 71 490 65 430 65 c 0
 244 65 145 172 145 357 c 0
 145 535 248 666 426 666 c 0
 512 666 580 643 626 599 c 1
 662 658 l 1
 604 716 534 742 428 742 c 0
 196 742 56 582 56 350 c 0
430 728 m 0
380 0 m 0
EndSplineSet
EndChar

StartChar: H
Encoding: 72 72 31
Width: 745
VWidth: 0
Flags: HW
LayerCount: 2
UndoRedoHistory
Layer: 0
Undoes
EndUndoes
Redoes
EndRedoes
EndUndoRedoHistory
UndoRedoHistory
Layer: 1
Undoes
EndUndoes
Redoes
EndRedoes
EndUndoRedoHistory
Fore
SplineSet
660 728 m 1
 574 728 l 1
 574 411 l 1
 173 411 l 1
 173 728 l 1
 87 728 l 1
 87 0 l 1
 173 0 l 1
 173 337 l 1
 574 337 l 1
 574 0 l 1
 660 0 l 1
 660 728 l 1
374 582 m 0
374 728 m 0
EndSplineSet
EndChar

StartChar: I
Encoding: 73 73 32
Width: 271
VWidth: 0
Flags: HW
LayerCount: 2
UndoRedoHistory
Layer: 0
Undoes
EndUndoes
Redoes
EndRedoes
EndUndoRedoHistory
UndoRedoHistory
Layer: 1
Undoes
EndUndoes
Redoes
EndRedoes
EndUndoRedoHistory
Fore
SplineSet
93 728 m 1
 93 0 l 1
 179 0 l 1
 179 728 l 1
 93 728 l 1
154 5 m 0
136 728 m 0
EndSplineSet
EndChar

StartChar: J
Encoding: 74 74 41
Width: 519
VWidth: 0
Flags: HW
LayerCount: 2
UndoRedoHistory
Layer: 0
Undoes
EndUndoes
Redoes
EndRedoes
EndUndoRedoHistory
UndoRedoHistory
Layer: 1
Undoes
EndUndoes
Redoes
EndRedoes
EndUndoRedoHistory
Fore
SplineSet
82 728 m 1
 82 657 l 1
 292 657 l 1
 292 167 l 2
 292 -17 194 -55 46 11 c 1
 20 -57 l 1
 198 -143 378 -88 378 168 c 2
 378 657 l 1
 514 657 l 1
 514 728 l 1
 82 728 l 1
305 728 m 0
EndSplineSet
EndChar

StartChar: J.alt
Encoding: 65537 -1 42
Width: 468
VWidth: 0
Flags: HW
LayerCount: 2
UndoRedoHistory
Layer: 0
Undoes
EndUndoes
Redoes
EndRedoes
EndUndoRedoHistory
UndoRedoHistory
Layer: 1
Undoes
EndUndoes
Redoes
EndRedoes
EndUndoRedoHistory
Fore
SplineSet
160 -12 m 0
 194 -12 224 -6 251 6 c 0
 335 42 378 128 378 250 c 2
 378 728 l 1
 292 728 l 1
 292 244 l 2
 292 148 259 62 163 62 c 0
 119 62 88 78 61 98 c 1
 36 40 l 1
 66 10 104 -12 160 -12 c 0
235 0 m 0
EndSplineSet
EndChar

StartChar: K
Encoding: 75 75 44
Width: 622
VWidth: 0
Flags: HW
LayerCount: 2
UndoRedoHistory
Layer: 0
Undoes
EndUndoes
Redoes
EndRedoes
EndUndoRedoHistory
UndoRedoHistory
Layer: 1
Undoes
EndUndoes
Redoes
EndRedoes
EndUndoRedoHistory
Fore
SplineSet
495 728 m 1
 173 398 l 1
 173 728 l 1
 87 728 l 1
 87 0 l 1
 173 0 l 1
 173 362 l 1
 512 0 l 1
 621 0 l 1
 266 382 l 1
 601 728 l 1
 495 728 l 1
308 728 m 0
308 0 m 0
EndSplineSet
EndChar

StartChar: L
Encoding: 76 76 45
Width: 533
VWidth: 0
Flags: HW
LayerCount: 2
UndoRedoHistory
Layer: 0
Undoes
EndUndoes
Redoes
EndRedoes
EndUndoRedoHistory
UndoRedoHistory
Layer: 1
Undoes
EndUndoes
Redoes
EndRedoes
EndUndoRedoHistory
Fore
SplineSet
87 728 m 1
 87 0 l 1
 522 0 l 1
 522 74 l 1
 173 74 l 1
 173 728 l 1
 87 728 l 1
134 408 m 0
296 0 m 0
266 728 m 0
EndSplineSet
EndChar

StartChar: Lslash
Encoding: 321 321 47
Width: 559
VWidth: 0
Flags: HW
LayerCount: 2
UndoRedoHistory
Layer: 0
Undoes
EndUndoes
Redoes
EndRedoes
EndUndoRedoHistory
UndoRedoHistory
Layer: 1
Undoes
EndUndoes
Redoes
EndRedoes
EndUndoRedoHistory
Fore
SplineSet
101 0 m 1
 536 0 l 1
 536 74 l 1
 187 74 l 1
 187 356 l 1
 330 445 l 1
 330 514 l 1
 187 424 l 1
 187 728 l 1
 101 728 l 1
 101 371 l 1
 8 313 l 1
 8 244 l 1
 101 302 l 1
 101 0 l 1
EndSplineSet
EndChar

StartChar: M
Encoding: 77 77 48
Width: 971
VWidth: 0
Flags: HW
LayerCount: 2
UndoRedoHistory
Layer: 0
Undoes
EndUndoes
Redoes
EndRedoes
EndUndoRedoHistory
UndoRedoHistory
Layer: 1
Undoes
EndUndoes
Redoes
EndRedoes
EndUndoRedoHistory
Fore
SplineSet
768 728 m 1
 529 264 l 1
 486 161 l 1
 444 263 l 1
 206 728 l 1
 87 728 l 1
 87 0 l 1
 172 0 l 1
 172 634 l 1
 202 554 l 1
 454 55 l 1
 517 55 l 1
 767 548 l 1
 801 626 l 1
 801 0 l 1
 885 0 l 1
 885 728 l 1
 768 728 l 1
495 728 m 0
EndSplineSet
EndChar

StartChar: N
Encoding: 78 78 49
Width: 784
VWidth: 0
Flags: HW
LayerCount: 2
UndoRedoHistory
Layer: 0
Undoes
EndUndoes
Redoes
EndRedoes
EndUndoRedoHistory
UndoRedoHistory
Layer: 1
Undoes
EndUndoes
Redoes
EndRedoes
EndUndoRedoHistory
Fore
SplineSet
612 728 m 1
 612 108 l 1
 574 171 l 1
 190 728 l 1
 87 728 l 1
 87 0 l 1
 173 0 l 1
 173 618 l 1
 209 556 l 1
 594 0 l 1
 698 0 l 1
 698 728 l 1
 612 728 l 1
398 728 m 0
398 0 m 0
EndSplineSet
EndChar

StartChar: O
Encoding: 79 79 52
Width: 829
VWidth: 0
Flags: HW
LayerCount: 2
UndoRedoHistory
Layer: 0
Undoes
EndUndoes
Redoes
EndRedoes
EndUndoRedoHistory
UndoRedoHistory
Layer: 1
Undoes
EndUndoes
Redoes
EndRedoes
EndUndoRedoHistory
Fore
SplineSet
56 364 m 0
 56 168 178 -12 415 -12 c 0
 652 -12 774 168 774 364 c 0
 774 561 652 742 415 742 c 0
 178 742 56 561 56 364 c 0
682 364 m 0
 682 164 554 64 415 64 c 0
 276 64 148 164 148 364 c 0
 148 564 276 666 415 666 c 0
 554 666 682 564 682 364 c 0
414 0 m 0
EndSplineSet
EndChar

StartChar: OE
Encoding: 338 338 53
Width: 1048
VWidth: 0
Flags: HW
LayerCount: 2
UndoRedoHistory
Layer: 0
Undoes
EndUndoes
Redoes
EndRedoes
EndUndoRedoHistory
UndoRedoHistory
Layer: 1
Undoes
EndUndoes
Redoes
EndRedoes
EndUndoRedoHistory
Fore
SplineSet
414 -12 m 0
 484 -12 536 16 576 52 c 1
 576 0 l 1
 992 0 l 1
 992 74 l 1
 662 74 l 1
 662 336 l 1
 958 336 l 1
 958 410 l 1
 662 410 l 1
 662 654 l 1
 977 654 l 1
 977 728 l 1
 576 728 l 1
 576 690 l 1
 535 719 484 742 418 742 c 0
 200 742 57 604 57 364 c 0
 57 143 175 -12 414 -12 c 0
414 62 m 0
 247 62 149 178 149 362 c 0
 149 540 233 668 415 668 c 0
 486 668 536 644 576 610 c 1
 576 132 l 1
 538 92 487 62 414 62 c 0
525 0 m 0
EndSplineSet
EndChar

StartChar: Oslash
Encoding: 216 216 58
Width: 830
VWidth: 0
Flags: HW
LayerCount: 2
UndoRedoHistory
Layer: 0
Undoes
EndUndoes
Redoes
EndRedoes
EndUndoRedoHistory
UndoRedoHistory
Layer: 1
Undoes
EndUndoes
Redoes
EndRedoes
EndUndoRedoHistory
Fore
SplineSet
260 -82 m 1
 631 790 l 1
 568 812 l 1
 200 -60 l 1
 260 -82 l 1
416 728 m 0
EndSplineSet
Refer: 52 79 N 1 0 0 1 0 0 2
EndChar

StartChar: P
Encoding: 80 80 60
Width: 618
VWidth: 0
Flags: HW
LayerCount: 2
UndoRedoHistory
Layer: 0
Undoes
EndUndoes
Redoes
EndRedoes
EndUndoRedoHistory
UndoRedoHistory
Layer: 1
Undoes
EndUndoes
Redoes
EndRedoes
EndUndoRedoHistory
Fore
SplineSet
87 728 m 1
 87 0 l 1
 173 0 l 1
 173 294 l 1
 294 294 l 2
 486 294 586 367 586 510 c 0
 586 658 498 728 282 728 c 2
 87 728 l 1
494 509 m 0
 494 416 430 368 304 368 c 2
 173 368 l 1
 173 654 l 1
 294 654 l 2
 440 654 494 607 494 509 c 0
EndSplineSet
EndChar

StartChar: Q
Encoding: 81 81 61
Width: 823
VWidth: 0
Flags: HW
LayerCount: 2
UndoRedoHistory
Layer: 0
Undoes
EndUndoes
Redoes
EndRedoes
EndUndoRedoHistory
UndoRedoHistory
Layer: 1
Undoes
EndUndoes
Redoes
EndRedoes
EndUndoRedoHistory
Fore
SplineSet
56 368 m 0
 56 141 185 -11 411 -11 c 0
 430 -11 448 -9 464 -6 c 1
 502 -88 556 -153 614 -211 c 1
 670 -152 l 1
 621 -106 578 -55 546 10 c 1
 678 62 768 187 768 368 c 0
 768 592 639 742 415 742 c 0
 193 742 56 592 56 368 c 0
674 368 m 0
 674 191 590 62 412 62 c 0
 239 62 146 194 146 368 c 0
 146 540 239 667 412 667 c 0
 588 667 674 544 674 368 c 0
EndSplineSet
EndChar

StartChar: R
Encoding: 82 82 62
Width: 659
VWidth: 0
Flags: HW
LayerCount: 2
UndoRedoHistory
Layer: 0
Undoes
EndUndoes
Redoes
EndRedoes
EndUndoRedoHistory
UndoRedoHistory
Layer: 1
Undoes
EndUndoes
Redoes
EndRedoes
EndUndoRedoHistory
Fore
SplineSet
87 728 m 1
 87 0 l 1
 173 0 l 1
 173 326 l 1
 308 326 l 2
 406 326 432 282 458 210 c 2
 534 0 l 1
 628 0 l 1
 546 205 l 2
 519 273 497 336 429 358 c 1
 512 380 584 433 584 537 c 0
 584 705 433 728 265 728 c 2
 87 728 l 1
493 529 m 0
 493 429 404 400 306 400 c 2
 173 400 l 1
 173 654 l 1
 312 654 l 2
 414 654 493 631 493 529 c 0
330 728 m 0
330 0 m 0
EndSplineSet
EndChar

StartChar: S
Encoding: 83 83 66
Width: 613
VWidth: 0
Flags: HW
LayerCount: 2
UndoRedoHistory
Layer: 0
Undoes
EndUndoes
Redoes
EndRedoes
EndUndoRedoHistory
UndoRedoHistory
Layer: 1
Undoes
EndUndoes
Redoes
EndRedoes
EndUndoRedoHistory
Fore
SplineSet
70 554 m 0
 68 450 112 385 283 336 c 0
 455 286 476 250 476 200 c 0
 476 114 427 62 324 62 c 0
 251 62 153 93 87 144 c 1
 73 62 l 1
 140 18 243 -11 332 -11 c 0
 495 -11 568 84 568 198 c 0
 568 290 526 354 338 408 c 0
 185 452 159 492 162 560 c 0
 165 631 220 667 328 667 c 0
 390 667 460 644 516 609 c 1
 542 680 l 1
 464 728 386 742 318 742 c 0
 172 742 72 669 70 554 c 0
320 728 m 0
311 0 m 0
EndSplineSet
EndChar

StartChar: T
Encoding: 84 84 70
Width: 579
VWidth: 0
Flags: HW
LayerCount: 2
UndoRedoHistory
Layer: 0
Undoes
EndUndoes
Redoes
EndRedoes
EndUndoRedoHistory
UndoRedoHistory
Layer: 1
Undoes
EndUndoes
Redoes
EndRedoes
EndUndoRedoHistory
Fore
SplineSet
12 728 m 1
 12 654 l 1
 246 654 l 1
 246 0 l 1
 332 0 l 1
 332 654 l 1
 568 654 l 1
 568 728 l 1
 12 728 l 1
290 406 m 0
290 0 m 0
290 728 m 0
EndSplineSet
EndChar

StartChar: Thorn
Encoding: 222 222 71
Width: 636
VWidth: 0
Flags: HW
LayerCount: 2
UndoRedoHistory
Layer: 0
Undoes
EndUndoes
Redoes
EndRedoes
EndUndoRedoHistory
UndoRedoHistory
Layer: 1
Undoes
EndUndoes
Redoes
EndRedoes
EndUndoRedoHistory
Fore
SplineSet
102 0 m 1
 188 0 l 1
 188 222 l 1
 298 222 l 2
 382 222 457 240 509 273 c 0
 561 305 600 357 600 438 c 0
 600 616 450 656 272 656 c 2
 188 656 l 1
 188 728 l 1
 102 728 l 1
 102 0 l 1
188 296 m 1
 188 582 l 1
 294 582 l 2
 414 582 508 557 508 437 c 0
 508 413 504 392 494 374 c 0
 465 320 401 296 318 296 c 2
 188 296 l 1
EndSplineSet
EndChar

StartChar: U
Encoding: 85 85 72
Width: 735
VWidth: 0
Flags: HW
LayerCount: 2
UndoRedoHistory
Layer: 0
Undoes
EndUndoes
Redoes
EndRedoes
EndUndoRedoHistory
UndoRedoHistory
Layer: 1
Undoes
EndUndoes
Redoes
EndRedoes
EndUndoRedoHistory
Fore
SplineSet
569 728 m 1
 569 270 l 2
 569 140 500 62 374 62 c 0
 238 62 168 130 168 273 c 2
 168 728 l 1
 82 728 l 1
 82 270 l 2
 82 78 182 -11 374 -11 c 0
 555 -11 653 96 654 276 c 1
 654 728 l 1
 569 728 l 1
410 5 m 0
370 728 m 0
EndSplineSet
EndChar

StartChar: V
Encoding: 86 86 77
Width: 667
VWidth: 0
Flags: HW
LayerCount: 2
UndoRedoHistory
Layer: 0
Undoes
EndUndoes
Redoes
EndRedoes
EndUndoRedoHistory
UndoRedoHistory
Layer: 1
Undoes
EndUndoes
Redoes
EndRedoes
EndUndoRedoHistory
Fore
SplineSet
570 728 m 1
 360 162 l 1
 336 92 l 1
 313 162 l 1
 100 728 l 1
 6 728 l 1
 290 0 l 1
 384 0 l 1
 662 728 l 1
 570 728 l 1
EndSplineSet
EndChar

StartChar: W
Encoding: 87 87 78
Width: 1046
VWidth: 0
Flags: HW
LayerCount: 2
UndoRedoHistory
Layer: 0
Undoes
EndUndoes
Redoes
EndRedoes
EndUndoRedoHistory
UndoRedoHistory
Layer: 1
Undoes
EndUndoes
Redoes
EndRedoes
EndUndoRedoHistory
Fore
SplineSet
948 728 m 1
 796 174 l 1
 775 95 l 1
 752 172 l 1
 572 728 l 1
 482 728 l 1
 301 174 l 1
 276 94 l 1
 257 174 l 1
 102 728 l 1
 9 728 l 1
 220 0 l 1
 327 0 l 1
 524 624 l 1
 721 0 l 1
 827 0 l 1
 1038 728 l 1
 948 728 l 1
524 728 m 0
EndSplineSet
EndChar

StartChar: X
Encoding: 88 88 79
Width: 651
VWidth: 0
Flags: HW
LayerCount: 2
UndoRedoHistory
Layer: 0
Undoes
EndUndoes
Redoes
EndRedoes
EndUndoRedoHistory
UndoRedoHistory
Layer: 1
Undoes
EndUndoes
Redoes
EndRedoes
EndUndoRedoHistory
Fore
SplineSet
540 728 m 1
 331 427 l 1
 129 728 l 1
 25 728 l 1
 274 370 l 1
 6 0 l 1
 108 0 l 1
 324 312 l 1
 542 0 l 1
 642 0 l 1
 382 371 l 1
 638 728 l 1
 540 728 l 1
EndSplineSet
EndChar

StartChar: Y
Encoding: 89 89 80
Width: 627
VWidth: 0
Flags: HW
LayerCount: 2
UndoRedoHistory
Layer: 0
Undoes
EndUndoes
Redoes
EndRedoes
EndUndoRedoHistory
UndoRedoHistory
Layer: 1
Undoes
EndUndoes
Redoes
EndRedoes
EndUndoRedoHistory
Fore
SplineSet
530 728 m 1
 313 364 l 1
 98 728 l 1
 2 728 l 1
 268 291 l 1
 268 0 l 1
 354 0 l 1
 354 292 l 1
 626 728 l 1
 530 728 l 1
314 728 m 0
EndSplineSet
EndChar

StartChar: Z
Encoding: 90 90 83
Width: 610
VWidth: 0
Flags: HW
LayerCount: 2
UndoRedoHistory
Layer: 0
Undoes
EndUndoes
Redoes
EndRedoes
EndUndoRedoHistory
UndoRedoHistory
Layer: 1
Undoes
EndUndoes
Redoes
EndRedoes
EndUndoRedoHistory
Fore
SplineSet
62 728 m 1
 62 654 l 1
 461 654 l 1
 46 46 l 1
 46 0 l 1
 573 0 l 1
 573 74 l 1
 160 74 l 1
 577 684 l 1
 577 728 l 1
 62 728 l 1
336 728 m 0
EndSplineSet
EndChar

StartChar: a
Encoding: 97 97 87
Width: 601
VWidth: 0
Flags: HW
LayerCount: 2
UndoRedoHistory
Layer: 0
Undoes
EndUndoes
Redoes
EndRedoes
EndUndoRedoHistory
UndoRedoHistory
Layer: 1
Undoes
EndUndoes
Redoes
EndRedoes
EndUndoRedoHistory
Fore
SplineSet
45 219 m 0
 45 81 128 -11 253 -11 c 0
 332 -11 407 27 441 83 c 1
 453 32 499 -2 557 -2 c 1
 574 70 l 1
 536 70 512 99 512 143 c 2
 512 481 l 1
 472 507 400 524 333 524 c 0
 160 524 45 402 45 219 c 0
430 436 m 1
 430 226 l 2
 430 130 364 58 266 58 c 0
 184 58 130 124 130 224 c 0
 130 362 211 454 332 454 c 0
 370 454 409 446 430 436 c 1
538 12 m 0
315 513 m 0
EndSplineSet
EndChar

StartChar: a.alt
Encoding: 65538 -1 88
Width: 608
VWidth: 0
Flags: HW
LayerCount: 2
UndoRedoHistory
Layer: 0
Undoes
EndUndoes
Redoes
EndRedoes
EndUndoRedoHistory
UndoRedoHistory
Layer: 1
Undoes
EndUndoes
Redoes
EndRedoes
EndUndoRedoHistory
Fore
SplineSet
276 -12 m 0
 337 -12 416 7 462 83 c 1
 476 23 534 -2 578 -2 c 1
 596 70 l 1
 570 70 533 85 533 143 c 2
 533 260 l 2
 533 464 432 526 307 526 c 0
 142 526 44 422 44 247 c 0
 44 96 140 -12 276 -12 c 0
286 58 m 0
 194 58 128 139 128 252 c 0
 128 380 194 456 308 456 c 0
 398 456 451 407 451 262 c 0
 451 136 414 58 286 58 c 0
538 12 m 0
315 507 m 0
EndSplineSet
EndChar

StartChar: acute
Encoding: 180 180 92
Width: 302
VWidth: 0
Flags: HW
LayerCount: 2
UndoRedoHistory
Layer: 0
Undoes
EndUndoes
Redoes
EndRedoes
EndUndoRedoHistory
UndoRedoHistory
Layer: 1
Undoes
EndUndoes
Redoes
EndRedoes
EndUndoRedoHistory
Fore
SplineSet
88 586 m 1
 152 586 l 1
 306 746 l 1
 200 746 l 1
 88 586 l 1
128 513 m 0
EndSplineSet
EndChar

StartChar: ae
Encoding: 230 230 94
Width: 902
VWidth: 0
Flags: HW
LayerCount: 2
UndoRedoHistory
Layer: 0
Undoes
EndUndoes
Redoes
EndRedoes
EndUndoRedoHistory
UndoRedoHistory
Layer: 1
Undoes
EndUndoes
Redoes
EndRedoes
EndUndoRedoHistory
Fore
SplineSet
220 -11 m 0
 330 -11 392 47 426 115 c 1
 448 40 522 -11 616 -11 c 0
 723 -11 791 33 832 103 c 1
 788 146 l 1
 755 96 699 58 621 58 c 0
 515 58 470 127 470 232 c 0
 470 234 471 242 471 244 c 1
 848 244 l 1
 848 262 l 2
 848 422 772 524 626 524 c 0
 542 524 466 471 438 403 c 1
 417 478 358 524 275 524 c 0
 177 524 108 492 74 428 c 1
 119 382 l 1
 149 432 196 454 270 454 c 0
 353 454 386 396 386 314 c 2
 386 302 l 1
 222 302 40 305 40 141 c 0
 40 46 110 -11 220 -11 c 0
232 58 m 0
 168 58 125 81 125 145 c 0
 125 231 221 240 314 243 c 1
 386 244 l 1
 386 136 342 58 232 58 c 0
472 303 m 1
 478 380 527 454 625 454 c 0
 720 454 759 390 767 303 c 1
 472 303 l 1
452 0 m 0
EndSplineSet
EndChar

StartChar: ampersand
Encoding: 38 38 97
Width: 822
VWidth: 0
Flags: HW
LayerCount: 2
UndoRedoHistory
Layer: 0
Undoes
EndUndoes
Redoes
EndRedoes
EndUndoRedoHistory
UndoRedoHistory
Layer: 1
Undoes
EndUndoes
Redoes
EndRedoes
EndUndoRedoHistory
Fore
SplineSet
330 -14 m 0
 446 -14 523 35 583 93 c 1
 628 50 669 5 743 -6 c 1
 809 43 l 1
 788 47 770 52 754 57 c 0
 700 75 667 104 630 142 c 1
 686 214 728 313 732 432 c 1
 648 442 l 1
 648 421 646 400 642 378 c 0
 630 309 606 247 572 199 c 1
 364 411 l 1
 403 432 443 457 471 488 c 0
 495 514 518 548 518 594 c 0
 518 618 513 639 502 657 c 0
 472 707 410 736 330 736 c 0
 230 736 150 691 150 591 c 0
 150 573 152 557 158 543 c 0
 176 494 213 460 247 426 c 1
 200 401 152 372 116 336 c 0
 84 304 58 261 58 201 c 0
 58 167 64 136 78 110 c 0
 120 31 210 -14 330 -14 c 0
329 58 m 0
 303 58 278 61 256 69 c 0
 199 88 148 129 148 203 c 0
 148 225 152 244 160 261 c 0
 187 316 243 347 297 375 c 1
 412 262 l 2
 446 228 483 188 517 156 c 0
 524 150 528 146 529 146 c 1
 481 99 424 58 329 58 c 0
312 459 m 1
 300 469 292 480 282 490 c 0
 259 514 236 543 236 589 c 0
 236 644 279 670 334 670 c 0
 388 670 432 643 432 589 c 0
 432 575 429 562 422 550 c 0
 400 509 354 481 312 459 c 1
EndSplineSet
EndChar

StartChar: approxequal
Encoding: 8776 8776 99
Width: 674
VWidth: 0
Flags: HW
LayerCount: 2
UndoRedoHistory
Layer: 0
Undoes
EndUndoes
Redoes
EndRedoes
EndUndoRedoHistory
UndoRedoHistory
Layer: 1
Undoes
EndUndoes
Redoes
EndRedoes
EndUndoRedoHistory
Fore
SplineSet
134 130 m 1
 147 174 170 213 224 213 c 0
 238 213 253 210 268 204 c 0
 294 193 329 171 354 158 c 0
 382 144 409 131 449 131 c 0
 536 131 578 187 594 259 c 1
 538 273 l 1
 522 231 502 190 452 190 c 0
 438 190 422 195 405 203 c 0
 388 211 370 222 351 232 c 0
 317 250 275 273 226 273 c 0
 142 273 95 216 77 144 c 1
 134 130 l 1
134 317 m 1
 147 361 170 400 223 400 c 0
 237 400 252 396 266 390 c 0
 292 378 326 357 352 344 c 0
 380 330 408 317 448 317 c 0
 534 317 577 373 592 445 c 1
 538 459 l 1
 523 416 501 376 451 376 c 0
 437 376 423 380 407 386 c 0
 353 408 299 458 225 458 c 0
 139 458 92 404 76 330 c 1
 134 317 l 1
EndSplineSet
EndChar

StartChar: asciicircum
Encoding: 94 94 101
Width: 727
VWidth: 0
Flags: HW
LayerCount: 2
UndoRedoHistory
Layer: 0
Undoes
EndUndoes
Redoes
EndRedoes
EndUndoRedoHistory
UndoRedoHistory
Layer: 1
Undoes
EndUndoes
Redoes
EndRedoes
EndUndoRedoHistory
Fore
SplineSet
92 275 m 1
 170 275 l 1
 357 630 l 1
 550 275 l 1
 628 275 l 1
 383 716 l 1
 332 716 l 1
 92 275 l 1
EndSplineSet
EndChar

StartChar: asciitilde
Encoding: 126 126 102
Width: 728
VWidth: 0
Flags: HW
LayerCount: 2
UndoRedoHistory
Layer: 0
Undoes
EndUndoes
Redoes
EndRedoes
EndUndoRedoHistory
UndoRedoHistory
Layer: 1
Undoes
EndUndoes
Redoes
EndRedoes
EndUndoRedoHistory
Fore
SplineSet
152 192 m 1
 162 237 192 286 247 286 c 0
 257 286 269 284 282 280 c 0
 325 266 365 244 405 226 c 0
 426 216 452 205 478 205 c 0
 498 205 516 208 532 215 c 0
 583 237 614 283 628 342 c 1
 566 362 l 1
 556 321 528 272 478 272 c 0
 470 272 461 274 450 278 c 0
 410 293 369 316 329 332 c 0
 305 342 276 352 246 352 c 0
 225 352 205 350 188 342 c 0
 140 321 106 276 94 220 c 1
 152 192 l 1
EndSplineSet
EndChar

StartChar: asterisk
Encoding: 42 42 103
Width: 531
VWidth: 0
Flags: HW
LayerCount: 2
UndoRedoHistory
Layer: 0
Undoes
EndUndoes
Redoes
EndRedoes
EndUndoRedoHistory
UndoRedoHistory
Layer: 1
Undoes
EndUndoes
Redoes
EndRedoes
EndUndoRedoHistory
Fore
SplineSet
346 368 m 1
 409 405 l 1
 308 530 l 1
 440 574 l 1
 408 637 l 1
 290 576 l 1
 290 726 l 1
 220 726 l 1
 226 676 234 624 240 574 c 1
 98 636 l 1
 88 568 l 1
 224 529 l 1
 128 410 l 1
 190 372 l 1
 267 502 l 1
 346 368 l 1
EndSplineSet
EndChar

StartChar: at
Encoding: 64 64 104
Width: 946
VWidth: 0
Flags: HW
LayerCount: 2
UndoRedoHistory
Layer: 0
Undoes
EndUndoes
Redoes
EndRedoes
EndUndoRedoHistory
UndoRedoHistory
Layer: 1
Undoes
EndUndoes
Redoes
EndRedoes
EndUndoRedoHistory
Fore
SplineSet
484 -54 m 0
 616 -54 719 -9 783 61 c 1
 743 96 l 1
 681 43 595 6 486 6 c 0
 376 6 293 45 236 101 c 0
 181 155 140 234 140 338 c 0
 140 442 184 524 238 579 c 0
 294 635 377 678 483 678 c 0
 581 678 660 647 714 600 c 0
 764 556 804 488 804 398 c 0
 804 336 784 281 758 243 c 0
 736 211 702 175 654 175 c 0
 624 175 613 190 613 218 c 0
 613 234 617 258 625 292 c 0
 633 326 644 371 657 428 c 2
 686 554 l 1
 612 554 l 1
 604 511 l 1
 584 545 542 569 489 569 c 0
 417 569 361 529 323 488 c 0
 284 445 249 381 249 305 c 0
 249 276 253 250 262 228 c 0
 284 173 332 128 407 128 c 0
 465 128 507 156 536 192 c 1
 546 138 582 112 644 112 c 0
 714 112 770 153 806 195 c 0
 847 242 880 312 880 396 c 0
 880 510 830 588 766 642 c 0
 700 698 607 738 486 738 c 0
 355 738 257 689 187 623 c 0
 119 559 65 468 65 340 c 0
 65 216 116 122 183 58 c 0
 252 -7 355 -54 484 -54 c 0
416 192 m 0
 358 192 328 233 328 291 c 0
 328 347 349 397 373 433 c 0
 397 467 436 504 490 504 c 0
 548 504 570 468 570 410 c 0
 570 350 551 298 526 261 c 0
 503 227 468 192 416 192 c 0
EndSplineSet
EndChar

StartChar: b
Encoding: 98 98 106
Width: 604
VWidth: 0
Flags: HW
LayerCount: 2
UndoRedoHistory
Layer: 0
Undoes
EndUndoes
Redoes
EndRedoes
EndUndoRedoHistory
UndoRedoHistory
Layer: 1
Undoes
EndUndoes
Redoes
EndRedoes
EndUndoRedoHistory
Fore
SplineSet
76 748 m 1
 76 36 l 1
 76 36 184 -11 306 -11 c 0
 464 -11 560 107 560 272 c 0
 560 431 463 522 352 522 c 0
 287 522 216 492 158 426 c 1
 158 762 l 1
 76 748 l 1
475 275 m 0
 475 159 424 58 308 58 c 0
 231 58 158 78 158 78 c 1
 158 343 l 1
 215 415 284 452 343 452 c 0
 417 452 475 394 475 275 c 0
EndSplineSet
EndChar

StartChar: bar
Encoding: 124 124 108
Width: 250
VWidth: 0
Flags: HW
LayerCount: 2
UndoRedoHistory
Layer: 0
Undoes
EndUndoes
Redoes
EndRedoes
EndUndoRedoHistory
UndoRedoHistory
Layer: 1
Undoes
EndUndoes
Redoes
EndRedoes
EndUndoRedoHistory
Fore
SplineSet
84 -246 m 1
 162 -246 l 1
 162 772 l 1
 84 772 l 1
 84 -246 l 1
EndSplineSet
EndChar

StartChar: braceleft
Encoding: 123 123 109
Width: 312
VWidth: 0
Flags: HW
LayerCount: 2
UndoRedoHistory
Layer: 0
Undoes
EndUndoes
Redoes
EndRedoes
EndUndoRedoHistory
UndoRedoHistory
Layer: 1
Undoes
EndUndoes
Redoes
EndRedoes
EndUndoRedoHistory
Fore
SplineSet
283 -130 m 1
 283 -66 l 1
 213 -66 202 -30 202 54 c 1
 202 172 l 1
 202 252 195 280 43 338 c 1
 43 277 l 1
 111 270 122 221 122 147 c 2
 122 6 l 2
 122 -91 190 -126 283 -130 c 1
122 468 m 2
 122 394 111 345 43 338 c 1
 43 276 l 1
 195 334 202 362 202 442 c 1
 202 561 l 1
 202 645 213 681 283 681 c 1
 283 744 l 1
 190 740 122 706 122 609 c 2
 122 468 l 2
EndSplineSet
EndChar

StartChar: braceright
Encoding: 125 125 110
Width: 312
VWidth: 0
Flags: HW
LayerCount: 2
UndoRedoHistory
Layer: 0
Undoes
EndUndoes
Redoes
EndRedoes
EndUndoRedoHistory
UndoRedoHistory
Layer: 1
Undoes
EndUndoes
Redoes
EndRedoes
EndUndoRedoHistory
Fore
SplineSet
204 147 m 2
 204 221 215 270 283 277 c 1
 283 338 l 1
 131 280 124 252 124 172 c 1
 124 54 l 1
 124 -30 113 -66 43 -66 c 1
 43 -130 l 1
 136 -126 204 -91 204 6 c 2
 204 147 l 2
43 744 m 1
 43 681 l 1
 113 681 124 645 124 561 c 1
 124 442 l 1
 124 362 131 334 283 276 c 1
 283 338 l 1
 215 345 204 394 204 468 c 2
 204 609 l 2
 204 706 136 740 43 744 c 1
EndSplineSet
EndChar

StartChar: bracketleft
Encoding: 91 91 111
Width: 313
VWidth: 0
Flags: HW
LayerCount: 2
UndoRedoHistory
Layer: 0
Undoes
EndUndoes
Redoes
EndRedoes
EndUndoRedoHistory
UndoRedoHistory
Layer: 1
Undoes
EndUndoes
Redoes
EndRedoes
EndUndoRedoHistory
Fore
SplineSet
96 -130 m 1
 274 -130 l 1
 274 -68 l 1
 177 -68 l 1
 177 664 l 1
 274 664 l 1
 274 726 l 1
 96 726 l 1
 96 -130 l 1
EndSplineSet
EndChar

StartChar: bracketright
Encoding: 93 93 112
Width: 313
VWidth: 0
Flags: HW
LayerCount: 2
UndoRedoHistory
Layer: 0
Undoes
EndUndoes
Redoes
EndRedoes
EndUndoRedoHistory
UndoRedoHistory
Layer: 1
Undoes
EndUndoes
Redoes
EndRedoes
EndUndoRedoHistory
Fore
SplineSet
44 -130 m 1
 221 -130 l 1
 221 726 l 1
 39 726 l 1
 44 664 l 1
 139 664 l 1
 139 -68 l 1
 44 -68 l 1
 44 -130 l 1
EndSplineSet
EndChar

StartChar: breve
Encoding: 728 728 113
Width: 313
VWidth: 0
Flags: HW
LayerCount: 2
UndoRedoHistory
Layer: 0
Undoes
EndUndoes
Redoes
EndRedoes
EndUndoRedoHistory
UndoRedoHistory
Layer: 1
Undoes
EndUndoes
Redoes
EndRedoes
EndUndoRedoHistory
Fore
SplineSet
158 609 m 0
 241 609 292 650 298 727 c 1
 255 727 l 1
 245 685 205 662 154 662 c 0
 103 662 68 683 60 727 c 1
 16 727 l 1
 22 647 72 609 158 609 c 0
157 513 m 0
EndSplineSet
EndChar

StartChar: brokenbar
Encoding: 166 166 114
Width: 250
VWidth: 0
Flags: HW
LayerCount: 2
UndoRedoHistory
Layer: 0
Undoes
EndUndoes
Redoes
EndRedoes
EndUndoRedoHistory
UndoRedoHistory
Layer: 1
Undoes
EndUndoes
Redoes
EndRedoes
EndUndoRedoHistory
Fore
SplineSet
84 -246 m 1
 162 -246 l 1
 162 196 l 1
 84 196 l 1
 84 -246 l 1
84 338 m 1
 162 338 l 1
 162 772 l 1
 84 772 l 1
 84 338 l 1
EndSplineSet
EndChar

StartChar: bullet
Encoding: 8226 8226 115
Width: 493
VWidth: 0
Flags: HW
LayerCount: 2
UndoRedoHistory
Layer: 0
Undoes
EndUndoes
Redoes
EndRedoes
EndUndoRedoHistory
UndoRedoHistory
Layer: 1
Undoes
EndUndoes
Redoes
EndRedoes
EndUndoRedoHistory
Fore
SplineSet
246 192 m 0
 296 192 338 213 366 239 c 0
 393 264 416 302 416 350 c 0
 416 371 412 391 403 410 c 0
 379 462 325 505 249 505 c 0
 227 505 204 500 184 492 c 0
 130 470 78 421 78 347 c 0
 78 326 84 306 92 288 c 0
 116 235 170 192 246 192 c 0
EndSplineSet
EndChar

StartChar: c
Encoding: 99 99 116
Width: 508
VWidth: 0
Flags: HW
LayerCount: 2
UndoRedoHistory
Layer: 0
Undoes
EndUndoes
Redoes
EndRedoes
EndUndoRedoHistory
UndoRedoHistory
Layer: 1
Undoes
EndUndoes
Redoes
EndRedoes
EndUndoRedoHistory
Fore
SplineSet
45 252 m 0
 45 79 177 -12 317 -12 c 0
 383 -12 450 11 506 56 c 1
 478 119 l 1
 436 80 380 60 326 60 c 0
 226 60 130 120 130 254 c 0
 130 383 228 453 328 453 c 0
 376 453 424 436 462 400 c 1
 492 460 l 1
 444 506 380 525 320 525 c 0
 182 525 45 426 45 252 c 0
306 513 m 0
323 0 m 0
EndSplineSet
EndChar

StartChar: caron
Encoding: 711 711 118
Width: 348
VWidth: 0
Flags: HW
LayerCount: 2
UndoRedoHistory
Layer: 0
Undoes
EndUndoes
Redoes
EndRedoes
EndUndoRedoHistory
UndoRedoHistory
Layer: 1
Undoes
EndUndoes
Redoes
EndRedoes
EndUndoRedoHistory
Fore
SplineSet
134 585 m 1
 212 585 l 1
 331 746 l 1
 254 746 l 1
 170 639 l 1
 88 746 l 1
 14 746 l 1
 134 585 l 1
173 513 m 0
EndSplineSet
EndChar

StartChar: cedilla
Encoding: 184 184 121
Width: 263
VWidth: 0
Flags: HW
LayerCount: 2
UndoRedoHistory
Layer: 0
Undoes
EndUndoes
Redoes
EndRedoes
EndUndoRedoHistory
UndoRedoHistory
Layer: 1
Undoes
EndUndoes
Redoes
EndRedoes
EndUndoRedoHistory
Fore
SplineSet
114 -198 m 0
 174 -198 234 -180 234 -120 c 0
 234 -66 186 -47 134 -45 c 1
 130 -45 l 1
 138 8 l 1
 90 8 l 1
 74 -86 l 1
 90 -86 l 2
 96 -86 104 -84 108 -84 c 0
 138 -84 162 -90 162 -120 c 0
 162 -148 139 -156 106 -156 c 0
 79 -156 55 -150 30 -144 c 1
 26 -187 l 1
 53 -193 84 -198 114 -198 c 0
130 0 m 0
EndSplineSet
EndChar

StartChar: cent
Encoding: 162 162 122
Width: 593
VWidth: 0
Flags: HW
LayerCount: 2
UndoRedoHistory
Layer: 0
Undoes
EndUndoes
Redoes
EndRedoes
EndUndoRedoHistory
UndoRedoHistory
Layer: 1
Undoes
EndUndoes
Redoes
EndRedoes
EndUndoRedoHistory
Fore
SplineSet
304 -12 m 0
 361 -12 424 6 488 44 c 1
 470 112 l 1
 412 72 357 58 308 58 c 0
 206 58 134 129 134 254 c 0
 134 368 195 454 310 454 c 0
 370 454 414 436 442 400 c 1
 480 456 l 1
 446 501 385 526 305 526 c 0
 145 526 47 412 47 252 c 0
 47 97 157 -12 304 -12 c 0
276 -118 m 1
 333 -118 l 1
 333 640 l 1
 276 640 l 1
 276 -118 l 1
EndSplineSet
EndChar

StartChar: circumflex
Encoding: 710 710 123
Width: 348
VWidth: 0
Flags: HW
LayerCount: 2
UndoRedoHistory
Layer: 0
Undoes
EndUndoes
Redoes
EndRedoes
EndUndoRedoHistory
UndoRedoHistory
Layer: 1
Undoes
EndUndoes
Redoes
EndRedoes
EndUndoRedoHistory
Fore
SplineSet
18 585 m 1
 80 585 l 1
 170 693 l 1
 258 585 l 1
 324 585 l 1
 210 747 l 1
 132 747 l 1
 18 585 l 1
171 513 m 0
EndSplineSet
EndChar

StartChar: colon
Encoding: 58 58 124
Width: 269
VWidth: 0
Flags: HW
LayerCount: 2
UndoRedoHistory
Layer: 0
Undoes
EndUndoes
Redoes
EndRedoes
EndUndoRedoHistory
UndoRedoHistory
Layer: 1
Undoes
EndUndoes
Redoes
EndRedoes
EndUndoRedoHistory
Fore
SplineSet
80 -6 m 1
 188 -6 l 1
 188 100 l 1
 80 100 l 1
 80 -6 l 1
80 420 m 1
 188 420 l 1
 188 526 l 1
 80 526 l 1
 80 420 l 1
EndSplineSet
EndChar

StartChar: comma
Encoding: 44 44 125
Width: 269
VWidth: 0
Flags: HW
LayerCount: 2
UndoRedoHistory
Layer: 0
Undoes
EndUndoes
Redoes
EndRedoes
EndUndoRedoHistory
UndoRedoHistory
Layer: 1
Undoes
EndUndoes
Redoes
EndRedoes
EndUndoRedoHistory
Fore
SplineSet
39 -128 m 1
 104 -128 l 1
 186 104 l 1
 92 104 l 1
 39 -128 l 1
EndSplineSet
EndChar

StartChar: commaaccentcomb
Encoding: 806 806 126
Width: 269
VWidth: 0
Flags: HW
LayerCount: 2
UndoRedoHistory
Layer: 0
Undoes
EndUndoes
Redoes
EndRedoes
EndUndoRedoHistory
UndoRedoHistory
Layer: 1
Undoes
EndUndoes
Redoes
EndRedoes
EndUndoRedoHistory
Fore
SplineSet
39 -312 m 1
 104 -312 l 1
 186 -81 l 1
 92 -81 l 1
 39 -312 l 1
112 0 m 0
EndSplineSet
EndChar

StartChar: copyright
Encoding: 169 169 127
Width: 913
VWidth: 0
Flags: HW
LayerCount: 2
UndoRedoHistory
Layer: 0
Undoes
EndUndoes
Redoes
EndRedoes
EndUndoRedoHistory
UndoRedoHistory
Layer: 1
Undoes
EndUndoes
Redoes
EndRedoes
EndUndoRedoHistory
Fore
SplineSet
470 124 m 0
 530 124 581 140 624 170 c 1
 605 230 l 1
 575 206 536 190 486 190 c 0
 456 190 430 195 408 204 c 0
 348 229 306 282 306 366 c 0
 306 390 310 413 318 434 c 0
 340 494 391 540 472 540 c 0
 526 540 571 524 607 492 c 1
 622 552 l 1
 582 586 534 604 476 604 c 0
 439 604 405 598 375 586 c 0
 291 553 230 479 230 364 c 0
 230 330 236 300 248 271 c 0
 282 189 356 124 470 124 c 0
457 -16 m 0
 581 -16 674 34 740 96 c 0
 804 156 858 242 858 362 c 0
 858 396 854 430 844 462 c 0
 824 530 786 585 740 629 c 0
 674 691 580 742 454 742 c 0
 330 742 236 692 170 630 c 0
 106 570 52 483 52 363 c 0
 52 329 56 295 66 263 c 0
 86 195 123 140 170 96 c 0
 236 34 331 -16 457 -16 c 0
456 42 m 0
 352 42 269 82 213 135 c 0
 159 187 115 264 115 364 c 0
 115 464 159 540 213 591 c 0
 269 643 351 683 454 683 c 0
 558 683 641 642 697 590 c 0
 751 538 795 462 795 362 c 0
 795 262 752 186 698 135 c 0
 642 83 560 42 456 42 c 0
EndSplineSet
EndChar

StartChar: currency
Encoding: 164 164 128
Width: 618
VWidth: 0
Flags: HW
LayerCount: 2
UndoRedoHistory
Layer: 0
Undoes
EndUndoes
Redoes
EndRedoes
EndUndoRedoHistory
UndoRedoHistory
Layer: 1
Undoes
EndUndoes
Redoes
EndRedoes
EndUndoRedoHistory
Fore
SplineSet
78 98 m 1
 172 194 l 1
 156 214 l 1
 60 116 l 1
 78 98 l 1
150 438 m 1
 171 456 l 1
 72 552 l 1
 53 532 l 1
 150 438 l 1
282 176 m 0
 198 176 132 245 132 329 c 0
 132 413 202 484 286 482 c 0
 370 480 434 410 432 326 c 0
 430 242 366 176 282 176 c 0
283 137 m 0
 389 137 476 220 478 326 c 0
 480 432 394 522 288 524 c 0
 182 526 88 436 88 330 c 0
 88 224 177 137 283 137 c 0
497 105 m 1
 516 123 l 1
 418 217 l 1
 400 198 l 1
 497 105 l 1
414 444 m 1
 508 540 l 1
 488 560 l 1
 394 462 l 1
 414 444 l 1
EndSplineSet
EndChar

StartChar: d
Encoding: 100 100 129
Width: 612
VWidth: 0
Flags: HW
LayerCount: 2
UndoRedoHistory
Layer: 0
Undoes
EndUndoes
Redoes
EndRedoes
EndUndoRedoHistory
UndoRedoHistory
Layer: 1
Undoes
EndUndoes
Redoes
EndRedoes
EndUndoRedoHistory
Fore
SplineSet
453 753 m 1
 453 458 l 1
 398 505 346 524 280 524 c 0
 126 524 45 404 45 250 c 0
 45 92 138 -11 280 -11 c 0
 360 -11 430 26 460 88 c 1
 462 55 479 16 498 -6 c 1
 580 5 l 1
 558 38 536 81 536 195 c 2
 536 763 l 1
 453 753 l 1
454 372 m 1
 454 267 l 2
 454 148 410 58 290 58 c 0
 196 58 130 138 130 254 c 0
 130 366 179 454 292 454 c 0
 352 454 416 422 454 372 c 1
492 647 m 0
EndSplineSet
EndChar

StartChar: dagger
Encoding: 8224 8224 130
Width: 510
VWidth: 0
Flags: HW
LayerCount: 2
UndoRedoHistory
Layer: 0
Undoes
EndUndoes
Redoes
EndRedoes
EndUndoRedoHistory
UndoRedoHistory
Layer: 1
Undoes
EndUndoes
Redoes
EndRedoes
EndUndoRedoHistory
Fore
SplineSet
216 56 m 1
 280 56 l 1
 280 467 l 1
 460 467 l 1
 460 533 l 1
 288 533 l 1
 288 726 l 1
 216 726 l 1
 216 533 l 1
 54 533 l 1
 54 467 l 1
 216 467 l 1
 216 56 l 1
EndSplineSet
EndChar

StartChar: daggerdbl
Encoding: 8225 8225 131
Width: 510
VWidth: 0
Flags: HW
LayerCount: 2
UndoRedoHistory
Layer: 0
Undoes
EndUndoes
Redoes
EndRedoes
EndUndoRedoHistory
UndoRedoHistory
Layer: 1
Undoes
EndUndoes
Redoes
EndRedoes
EndUndoRedoHistory
Fore
SplineSet
210 56 m 1
 296 56 l 1
 282 218 l 1
 454 218 l 1
 454 281 l 1
 282 281 l 1
 282 492 l 1
 458 492 l 1
 458 558 l 1
 286 558 l 1
 296 726 l 1
 211 726 l 1
 224 558 l 1
 52 558 l 1
 52 492 l 1
 221 492 l 1
 221 281 l 1
 49 281 l 1
 49 218 l 1
 221 218 l 1
 210 56 l 1
EndSplineSet
EndChar

StartChar: dblgravecmb
Encoding: 783 783 132
Width: 483
VWidth: 0
Flags: HW
LayerCount: 2
UndoRedoHistory
Layer: 0
Undoes
EndUndoes
Redoes
EndRedoes
EndUndoRedoHistory
UndoRedoHistory
Layer: 1
Undoes
EndUndoes
Redoes
EndRedoes
EndUndoRedoHistory
Fore
SplineSet
219 587 m 1
 279 587 l 1
 169 744 l 1
 81 744 l 1
 219 587 l 1
354 587 m 1
 412 587 l 1
 304 744 l 1
 216 744 l 1
 354 587 l 1
313 513 m 0
EndSplineSet
EndChar

StartChar: degree
Encoding: 176 176 133
Width: 421
VWidth: 0
Flags: HW
LayerCount: 2
UndoRedoHistory
Layer: 0
Undoes
EndUndoes
Redoes
EndRedoes
EndUndoRedoHistory
UndoRedoHistory
Layer: 1
Undoes
EndUndoes
Redoes
EndRedoes
EndUndoRedoHistory
Fore
SplineSet
207 486 m 0
 193 486 181 488 169 492 c 0
 137 504 110 532 110 576 c 0
 110 588 113 600 118 611 c 0
 132 641 163 664 207 664 c 0
 220 664 232 661 244 657 c 0
 276 645 304 619 304 576 c 0
 304 564 301 551 296 540 c 0
 282 510 251 486 207 486 c 0
207 428 m 0
 229 428 248 431 268 439 c 0
 319 459 366 505 366 575 c 0
 366 595 362 614 354 632 c 0
 330 682 279 722 207 722 c 0
 185 722 166 718 146 710 c 0
 95 690 48 645 48 575 c 0
 48 555 52 536 60 518 c 0
 84 468 135 428 207 428 c 0
EndSplineSet
EndChar

StartChar: dieresis
Encoding: 168 168 134
Width: 370
VWidth: 0
Flags: HW
LayerCount: 2
UndoRedoHistory
Layer: 0
Undoes
EndUndoes
Redoes
EndRedoes
EndUndoRedoHistory
UndoRedoHistory
Layer: 1
Undoes
EndUndoes
Redoes
EndRedoes
EndUndoRedoHistory
Fore
SplineSet
60 592 m 1
 142 592 l 1
 142 673 l 1
 60 673 l 1
 60 592 l 1
226 592 m 1
 308 592 l 1
 308 673 l 1
 226 673 l 1
 226 592 l 1
184 513 m 0
EndSplineSet
EndChar

StartChar: divide
Encoding: 247 247 135
Width: 728
VWidth: 0
Flags: HW
LayerCount: 2
UndoRedoHistory
Layer: 0
Undoes
EndUndoes
Redoes
EndRedoes
EndUndoRedoHistory
UndoRedoHistory
Layer: 1
Undoes
EndUndoes
Redoes
EndRedoes
EndUndoRedoHistory
Fore
SplineSet
310 10 m 1
 418 10 l 1
 418 116 l 1
 310 116 l 1
 310 10 l 1
99 242 m 1
 623 242 l 1
 623 312 l 1
 99 312 l 1
 99 242 l 1
310 436 m 1
 418 436 l 1
 418 542 l 1
 310 542 l 1
 310 436 l 1
EndSplineSet
EndChar

StartChar: dollar
Encoding: 36 36 136
Width: 594
VWidth: 0
Flags: HW
LayerCount: 2
UndoRedoHistory
Layer: 0
Undoes
EndUndoes
Redoes
EndRedoes
EndUndoRedoHistory
UndoRedoHistory
Layer: 1
Undoes
EndUndoes
Redoes
EndRedoes
EndUndoRedoHistory
Fore
SplineSet
268 -86 m 1
 330 -86 l 1
 328 -6 l 1
 356 -4 384 2 410 12 c 0
 479 37 540 88 540 180 c 0
 540 238 519 274 486 302 c 0
 444 338 390 361 328 385 c 1
 329 650 l 1
 391 648 439 631 474 599 c 1
 498 663 l 1
 458 697 398 718 328 720 c 1
 327 788 l 1
 265 788 l 1
 267 718 l 1
 211 714 163 689 130 658 c 0
 98 628 68 582 68 524 c 0
 68 496 74 472 84 452 c 0
 120 386 195 356 267 324 c 1
 266 64 l 1
 211 66 163 87 126 112 c 1
 101 44 l 1
 145 12 196 -6 266 -8 c 1
 268 -86 l 1
327 66 m 1
 329 302 l 1
 383 279 450 253 450 179 c 0
 450 163 446 148 440 135 c 0
 420 96 379 73 327 66 c 1
266 409 m 1
 212 429 163 457 163 530 c 0
 163 597 207 638 267 646 c 1
 266 409 l 1
EndSplineSet
EndChar

StartChar: dotaccent
Encoding: 729 729 137
Width: 261
VWidth: 0
Flags: HW
LayerCount: 2
UndoRedoHistory
Layer: 0
Undoes
EndUndoes
Redoes
EndRedoes
EndUndoRedoHistory
UndoRedoHistory
Layer: 1
Undoes
EndUndoes
Redoes
EndRedoes
EndUndoRedoHistory
Fore
SplineSet
92 623 m 1
 172 623 l 1
 172 704 l 1
 92 704 l 1
 92 623 l 1
132 513 m 0
EndSplineSet
EndChar

StartChar: dotlessi
Encoding: 305 305 138
Width: 250
VWidth: 0
Flags: HW
LayerCount: 2
UndoRedoHistory
Layer: 0
Undoes
EndUndoes
Redoes
EndRedoes
EndUndoRedoHistory
UndoRedoHistory
Layer: 1
Undoes
EndUndoes
Redoes
EndRedoes
EndUndoRedoHistory
Fore
SplineSet
217 -2 m 0
 241 -2 275 5 300 15 c 1
 290 70 l 1
 272 64 243 59 228 59 c 0
 194 59 166 72 166 142 c 2
 166 513 l 1
 84 513 l 1
 84 139 l 2
 84 33 146 -2 217 -2 c 0
226 5 m 0
126 513 m 0
EndSplineSet
EndChar

StartChar: e
Encoding: 101 101 139
Width: 534
VWidth: 0
Flags: HW
LayerCount: 2
UndoRedoHistory
Layer: 0
Undoes
EndUndoes
Redoes
EndRedoes
EndUndoRedoHistory
UndoRedoHistory
Layer: 1
Undoes
EndUndoes
Redoes
EndRedoes
EndUndoRedoHistory
Fore
SplineSet
45 258 m 0
 45 94 158 -11 310 -11 c 0
 390 -11 466 21 516 73 c 1
 474 126 l 1
 440 88 380 58 310 58 c 0
 236 58 162 110 142 186 c 1
 336 213 482 254 482 376 c 0
 482 460 413 524 305 524 c 0
 141 524 45 398 45 258 c 0
400 378 m 0
 400 298 290 267 136 245 c 1
 135 253 135 263 135 270 c 0
 135 394 223 454 306 454 c 0
 366 454 400 424 400 378 c 0
388 23 m 0
310 0 m 0
281 513 m 0
EndSplineSet
EndChar

StartChar: e.alt
Encoding: 65539 -1 140
Width: 535
VWidth: 0
Flags: HW
LayerCount: 2
UndoRedoHistory
Layer: 0
Undoes
EndUndoes
Redoes
EndRedoes
EndUndoRedoHistory
UndoRedoHistory
Layer: 1
Undoes
EndUndoes
Redoes
EndRedoes
EndUndoRedoHistory
Fore
SplineSet
294 -10 m 0
 378 -10 447 23 506 85 c 1
 465 138 l 1
 428 94 368 62 298 62 c 0
 231 62 166 96 144 186 c 1
 327 213 473 254 473 376 c 0
 473 460 404 528 296 528 c 0
 134 528 47 402 47 258 c 0
 47 88 162 -10 294 -10 c 0
138 245 m 1
 137 253 137 262 137 270 c 0
 137 368 196 456 296 456 c 0
 356 456 392 424 392 378 c 0
 392 298 281 267 138 245 c 1
483 5 m 0
268 0 m 0
268 0 m 0
EndSplineSet
EndChar

StartChar: eight
Encoding: 56 56 145
Width: 597
VWidth: 0
Flags: HW
LayerCount: 2
UndoRedoHistory
Layer: 0
Undoes
EndUndoes
Redoes
EndRedoes
EndUndoRedoHistory
UndoRedoHistory
Layer: 1
Undoes
EndUndoes
Redoes
EndRedoes
EndUndoRedoHistory
Fore
SplineSet
299 -12 m 0
 369 -12 430 9 472 39 c 0
 514 69 546 116 546 184 c 0
 546 290 478 348 388 374 c 1
 467 398 528 450 528 546 c 0
 528 574 522 600 510 622 c 0
 475 688 399 726 299 726 c 0
 267 726 238 722 210 714 c 0
 136 692 70 640 70 546 c 0
 70 450 131 398 210 374 c 1
 120 348 52 290 52 184 c 0
 52 152 58 124 72 100 c 0
 110 31 193 -12 299 -12 c 0
299 60 m 0
 209 60 140 100 140 190 c 0
 140 210 144 228 152 244 c 0
 178 296 234 323 299 336 c 1
 377 320 458 284 458 190 c 0
 458 168 454 150 446 134 c 0
 422 86 370 60 299 60 c 0
299 410 m 1
 221 424 156 459 156 543 c 0
 156 561 159 578 167 592 c 0
 189 634 237 658 299 658 c 0
 377 658 442 621 442 543 c 0
 442 459 377 424 299 410 c 1
EndSplineSet
EndChar

StartChar: ellipsis
Encoding: 8230 8230 146
Width: 809
VWidth: 0
Flags: HW
LayerCount: 2
UndoRedoHistory
Layer: 0
Undoes
EndUndoes
Redoes
EndRedoes
EndUndoRedoHistory
UndoRedoHistory
Layer: 1
Undoes
EndUndoes
Redoes
EndRedoes
EndUndoRedoHistory
Fore
SplineSet
80 -6 m 1
 188 -6 l 1
 188 100 l 1
 80 100 l 1
 80 -6 l 1
350 -6 m 1
 458 -6 l 1
 458 100 l 1
 350 100 l 1
 350 -6 l 1
620 -6 m 1
 728 -6 l 1
 728 100 l 1
 620 100 l 1
 620 -6 l 1
EndSplineSet
EndChar

StartChar: emdash
Encoding: 8212 8212 148
Width: 1084
VWidth: 0
Flags: HW
LayerCount: 2
UndoRedoHistory
Layer: 0
Undoes
EndUndoes
Redoes
EndRedoes
EndUndoRedoHistory
UndoRedoHistory
Layer: 1
Undoes
EndUndoes
Redoes
EndRedoes
EndUndoRedoHistory
Fore
SplineSet
-2 244 m 1
 1080 244 l 1
 1080 313 l 1
 -2 313 l 1
 -2 244 l 1
EndSplineSet
EndChar

StartChar: endash
Encoding: 8211 8211 149
Width: 541
VWidth: 0
Flags: HW
LayerCount: 2
UndoRedoHistory
Layer: 0
Undoes
EndUndoes
Redoes
EndRedoes
EndUndoRedoHistory
UndoRedoHistory
Layer: 1
Undoes
EndUndoes
Redoes
EndRedoes
EndUndoRedoHistory
Fore
SplineSet
-3 244 m 1
 542 244 l 1
 542 313 l 1
 -3 313 l 1
 -3 244 l 1
EndSplineSet
EndChar

StartChar: equal
Encoding: 61 61 151
Width: 728
VWidth: 0
Flags: HW
LayerCount: 2
UndoRedoHistory
Layer: 0
Undoes
EndUndoes
Redoes
EndRedoes
EndUndoRedoHistory
UndoRedoHistory
Layer: 1
Undoes
EndUndoes
Redoes
EndRedoes
EndUndoRedoHistory
Fore
SplineSet
99 142 m 1
 624 142 l 1
 624 210 l 1
 99 210 l 1
 99 142 l 1
98 344 m 1
 623 344 l 1
 623 414 l 1
 98 414 l 1
 98 344 l 1
EndSplineSet
EndChar

StartChar: eth
Encoding: 240 240 152
Width: 594
VWidth: 0
Flags: HW
LayerCount: 2
UndoRedoHistory
Layer: 0
Undoes
EndUndoes
Redoes
EndRedoes
EndUndoRedoHistory
UndoRedoHistory
Layer: 1
Undoes
EndUndoes
Redoes
EndRedoes
EndUndoRedoHistory
Fore
SplineSet
290 -12 m 0
 330 -12 367 -4 399 11 c 0
 503 61 546 180 546 336 c 0
 546 402 537 461 522 513 c 1
 595 513 l 1
 595 582 l 1
 496 582 l 1
 460 658 406 714 326 745 c 1
 287 703 l 1
 342 672 383 636 413 582 c 1
 310 582 l 1
 310 513 l 1
 441 513 l 1
 453 469 459 423 459 366 c 1
 459 362 l 1
 423 420 362 448 272 448 c 0
 237 448 206 443 178 432 c 0
 100 401 44 331 44 223 c 0
 44 190 49 158 61 130 c 0
 95 46 173 -12 290 -12 c 0
286 59 m 0
 262 59 242 63 223 71 c 0
 169 94 132 145 132 220 c 0
 132 318 186 378 286 378 c 0
 371 378 430 332 452 268 c 1
 452 256 l 2
 452 145 398 59 286 59 c 0
EndSplineSet
EndChar

StartChar: exclam
Encoding: 33 33 153
Width: 367
VWidth: 0
Flags: HW
LayerCount: 2
UndoRedoHistory
Layer: 0
Undoes
EndUndoes
Redoes
EndRedoes
EndUndoRedoHistory
UndoRedoHistory
Layer: 1
Undoes
EndUndoes
Redoes
EndRedoes
EndUndoRedoHistory
Fore
SplineSet
176 -3 m 0
 204 -3 233 17 233 52 c 0
 233 82 212 108 176 108 c 0
 148 108 120 88 120 53 c 0
 120 23 140 -3 176 -3 c 0
152 186 m 1
 196 186 l 1
 220 728 l 1
 127 728 l 1
 152 186 l 1
EndSplineSet
EndChar

StartChar: f
Encoding: 102 102 155
Width: 348
VWidth: 0
Flags: HW
LayerCount: 2
UndoRedoHistory
Layer: 0
Undoes
EndUndoes
Redoes
EndRedoes
EndUndoRedoHistory
UndoRedoHistory
Layer: 1
Undoes
EndUndoes
Redoes
EndRedoes
EndUndoRedoHistory
Fore
SplineSet
126 585 m 2
 126 513 l 1
 26 513 l 1
 26 460 l 1
 126 460 l 1
 126 -17 l 2
 126 -97 95 -150 35 -164 c 1
 46 -224 l 1
 166 -208 208 -131 208 -6 c 2
 208 460 l 1
 332 460 l 1
 332 513 l 1
 208 513 l 1
 208 596 l 2
 208 672 234 704 292 704 c 0
 310 704 330 700 348 696 c 1
 360 750 l 1
 328 761 297 766 270 766 c 0
 169 766 126 711 126 585 c 2
EndSplineSet
EndChar

StartChar: five
Encoding: 53 53 156
Width: 594
VWidth: 0
Flags: HW
LayerCount: 2
UndoRedoHistory
Layer: 0
Undoes
EndUndoes
Redoes
EndRedoes
EndUndoRedoHistory
UndoRedoHistory
Layer: 1
Undoes
EndUndoes
Redoes
EndRedoes
EndUndoRedoHistory
Fore
SplineSet
274 -12 m 0
 314 -12 351 -5 383 7 c 0
 468 39 534 110 534 224 c 0
 534 256 529 287 518 315 c 0
 486 397 412 452 300 452 c 0
 248 452 210 440 176 420 c 1
 183 640 l 1
 497 640 l 1
 497 712 l 1
 102 712 l 1
 102 326 l 1
 190 329 l 1
 210 359 247 379 296 379 c 0
 320 379 342 375 360 367 c 0
 411 345 446 298 446 226 c 0
 446 204 442 182 434 162 c 0
 412 101 357 60 273 60 c 0
 198 60 148 94 114 144 c 1
 74 86 l 1
 112 27 178 -12 274 -12 c 0
EndSplineSet
EndChar

StartChar: florin
Encoding: 402 402 157
Width: 594
VWidth: 0
Flags: HW
LayerCount: 2
UndoRedoHistory
Layer: 0
Undoes
EndUndoes
Redoes
EndRedoes
EndUndoRedoHistory
UndoRedoHistory
Layer: 1
Undoes
EndUndoes
Redoes
EndRedoes
EndUndoRedoHistory
Fore
SplineSet
88 -166 m 0
 118 -166 145 -160 165 -148 c 0
 229 -110 250 -26 266 60 c 1
 330 402 l 1
 436 402 l 1
 441 472 l 1
 341 472 l 1
 359 570 l 2
 368 618 388 647 446 647 c 0
 466 647 484 642 500 636 c 1
 504 708 l 1
 482 714 457 718 432 718 c 0
 321 718 280 644 267 547 c 1
 256 472 l 1
 171 472 l 1
 166 402 l 1
 244 402 l 1
 218 270 199 130 167 4 c 0
 156 -42 138 -97 82 -97 c 0
 70 -97 56 -95 42 -89 c 1
 36 -158 l 1
 55 -164 72 -166 88 -166 c 0
EndSplineSet
EndChar

StartChar: four
Encoding: 52 52 158
Width: 593
VWidth: 0
Flags: HW
LayerCount: 2
UndoRedoHistory
Layer: 0
Undoes
EndUndoes
Redoes
EndRedoes
EndUndoRedoHistory
UndoRedoHistory
Layer: 1
Undoes
EndUndoes
Redoes
EndRedoes
EndUndoRedoHistory
Fore
SplineSet
363 0 m 1
 449 0 l 1
 449 176 l 1
 556 176 l 1
 556 242 l 1
 449 242 l 1
 449 710 l 1
 345 710 l 1
 12 238 l 1
 12 176 l 1
 363 176 l 1
 363 0 l 1
98 242 m 1
 319 573 l 1
 363 646 l 1
 363 242 l 1
 98 242 l 1
EndSplineSet
EndChar

StartChar: fraction
Encoding: 8260 8260 159
Width: 183
VWidth: 0
Flags: HW
LayerCount: 2
UndoRedoHistory
Layer: 0
Undoes
EndUndoes
Redoes
EndRedoes
EndUndoRedoHistory
UndoRedoHistory
Layer: 1
Undoes
EndUndoes
Redoes
EndRedoes
EndUndoRedoHistory
Fore
SplineSet
-168 0 m 1
 -93 0 l 1
 358 718 l 1
 284 718 l 1
 -168 0 l 1
EndSplineSet
EndChar

StartChar: g
Encoding: 103 103 160
Width: 570
VWidth: 0
Flags: HW
LayerCount: 2
UndoRedoHistory
Layer: 0
Undoes
EndUndoes
Redoes
EndRedoes
EndUndoRedoHistory
UndoRedoHistory
Layer: 1
Undoes
EndUndoes
Redoes
EndRedoes
EndUndoRedoHistory
Fore
SplineSet
45 219 m 0
 45 81 128 -11 253 -11 c 0
 324 -11 392 20 430 67 c 1
 430 -22 l 2
 430 -116 360 -178 256 -178 c 0
 212 -178 150 -163 104 -140 c 1
 94 -216 l 1
 144 -234 212 -247 262 -247 c 0
 412 -247 512 -154 512 -12 c 2
 512 481 l 1
 472 507 400 524 333 524 c 0
 160 524 45 402 45 219 c 0
430 436 m 1
 430 226 l 2
 430 130 364 58 266 58 c 0
 184 58 130 124 130 224 c 0
 130 362 211 454 332 454 c 0
 370 454 409 446 430 436 c 1
320 513 m 0
EndSplineSet
EndChar

StartChar: germandbls
Encoding: 223 223 162
Width: 627
VWidth: 0
Flags: HW
LayerCount: 2
UndoRedoHistory
Layer: 0
Undoes
EndUndoes
Redoes
EndRedoes
EndUndoRedoHistory
UndoRedoHistory
Layer: 1
Undoes
EndUndoes
Redoes
EndRedoes
EndUndoRedoHistory
Fore
SplineSet
396 -12 m 0
 420 -12 444 -6 467 2 c 0
 532 26 586 82 586 170 c 0
 586 203 580 232 566 257 c 0
 526 331 448 373 361 399 c 0
 351 402 346 405 346 408 c 0
 346 414 356 417 360 419 c 0
 394 434 426 458 452 484 c 0
 478 510 506 546 506 596 c 0
 506 618 501 638 492 658 c 0
 462 720 394 756 302 756 c 0
 268 756 237 750 210 740 c 0
 134 710 87 642 87 536 c 2
 88 0 l 1
 170 0 l 1
 170 50 170 109 170 163 c 0
 170 225 169 294 169 356 c 0
 169 410 168 469 168 519 c 0
 168 614 207 691 302 691 c 0
 366 691 412 660 412 596 c 0
 412 579 408 563 402 548 c 0
 382 501 340 467 294 446 c 1
 286 378 l 1
 336 350 389 321 429 285 c 0
 462 256 493 219 493 161 c 0
 493 99 456 54 394 54 c 0
 340 54 298 87 268 122 c 1
 236 69 l 1
 272 23 324 -12 396 -12 c 0
EndSplineSet
EndChar

StartChar: grave
Encoding: 96 96 163
Width: 295
VWidth: 0
Flags: HW
LayerCount: 2
UndoRedoHistory
Layer: 0
Undoes
EndUndoes
Redoes
EndRedoes
EndUndoRedoHistory
UndoRedoHistory
Layer: 1
Undoes
EndUndoes
Redoes
EndRedoes
EndUndoRedoHistory
Fore
SplineSet
166 586 m 1
 231 586 l 1
 108 746 l 1
 0 746 l 1
 166 586 l 1
184 513 m 0
EndSplineSet
EndChar

StartChar: greater
Encoding: 62 62 164
Width: 728
VWidth: 0
Flags: HW
LayerCount: 2
UndoRedoHistory
Layer: 0
Undoes
EndUndoes
Redoes
EndRedoes
EndUndoRedoHistory
UndoRedoHistory
Layer: 1
Undoes
EndUndoes
Redoes
EndRedoes
EndUndoRedoHistory
Fore
SplineSet
108 29 m 1
 612 252 l 1
 612 297 l 1
 110 539 l 1
 110 463 l 1
 502 278 l 1
 108 106 l 1
 108 29 l 1
EndSplineSet
EndChar

StartChar: greaterequal
Encoding: 8805 8805 165
Width: 674
VWidth: 0
Flags: HW
LayerCount: 2
UndoRedoHistory
Layer: 0
Undoes
EndUndoes
Redoes
EndRedoes
EndUndoRedoHistory
UndoRedoHistory
Layer: 1
Undoes
EndUndoes
Redoes
EndRedoes
EndUndoRedoHistory
Fore
SplineSet
96 109 m 1
 576 334 l 1
 576 374 l 1
 98 610 l 1
 98 540 l 1
 487 354 l 1
 96 180 l 1
 96 109 l 1
80 4 m 1
 586 4 l 1
 586 66 l 1
 80 66 l 1
 80 4 l 1
EndSplineSet
EndChar

StartChar: guillemotleft
Encoding: 171 171 166
Width: 577
VWidth: 0
Flags: HW
LayerCount: 2
UndoRedoHistory
Layer: 0
Undoes
EndUndoes
Redoes
EndRedoes
EndUndoRedoHistory
UndoRedoHistory
Layer: 1
Undoes
EndUndoes
Redoes
EndRedoes
EndUndoRedoHistory
Fore
SplineSet
258 86 m 1
 336 86 l 1
 208 270 l 1
 340 457 l 1
 260 457 l 1
 123 270 l 1
 258 86 l 1
442 86 m 1
 521 86 l 1
 393 270 l 1
 524 457 l 1
 445 457 l 1
 308 270 l 1
 442 86 l 1
EndSplineSet
EndChar

StartChar: guillemotright
Encoding: 187 187 167
Width: 577
VWidth: 0
Flags: HW
LayerCount: 2
UndoRedoHistory
Layer: 0
Undoes
EndUndoes
Redoes
EndRedoes
EndUndoRedoHistory
UndoRedoHistory
Layer: 1
Undoes
EndUndoes
Redoes
EndRedoes
EndUndoRedoHistory
Fore
SplineSet
82 86 m 1
 162 86 l 1
 300 271 l 1
 165 457 l 1
 86 457 l 1
 215 271 l 1
 82 86 l 1
282 86 m 1
 360 86 l 1
 498 271 l 1
 363 457 l 1
 285 457 l 1
 412 271 l 1
 282 86 l 1
EndSplineSet
EndChar

StartChar: guilsinglleft
Encoding: 8249 8249 168
Width: 320
VWidth: 0
Flags: HW
LayerCount: 2
UndoRedoHistory
Layer: 0
Undoes
EndUndoes
Redoes
EndRedoes
EndUndoRedoHistory
UndoRedoHistory
Layer: 1
Undoes
EndUndoes
Redoes
EndRedoes
EndUndoRedoHistory
Fore
SplineSet
187 86 m 1
 265 86 l 1
 138 270 l 1
 269 457 l 1
 190 457 l 1
 52 270 l 1
 187 86 l 1
EndSplineSet
EndChar

StartChar: guilsinglright
Encoding: 8250 8250 169
Width: 320
VWidth: 0
Flags: HW
LayerCount: 2
UndoRedoHistory
Layer: 0
Undoes
EndUndoes
Redoes
EndRedoes
EndUndoRedoHistory
UndoRedoHistory
Layer: 1
Undoes
EndUndoes
Redoes
EndRedoes
EndUndoRedoHistory
Fore
SplineSet
52 86 m 1
 130 86 l 1
 268 271 l 1
 133 457 l 1
 56 457 l 1
 182 271 l 1
 52 86 l 1
EndSplineSet
EndChar

StartChar: h
Encoding: 104 104 170
Width: 610
VWidth: 0
Flags: HW
LayerCount: 2
UndoRedoHistory
Layer: 0
Undoes
EndUndoes
Redoes
EndRedoes
EndUndoRedoHistory
UndoRedoHistory
Layer: 1
Undoes
EndUndoes
Redoes
EndRedoes
EndUndoRedoHistory
Fore
SplineSet
149 421 m 1
 158 266 l 1
 158 398 250 454 326 454 c 0
 403 454 434 402 434 281 c 1
 432 142 l 2
 431 24 456 -26 565 -10 c 1
 573 60 l 1
 511 48 515 84 515 160 c 2
 516 282 l 2
 518 451 459 524 343 524 c 0
 259 524 177 483 149 421 c 1
76 753 m 1
 76 0 l 1
 158 0 l 1
 158 763 l 1
 76 753 l 1
114 600 m 0
308 734 m 0
EndSplineSet
EndChar

StartChar: hungarumlaut
Encoding: 733 733 172
Width: 483
VWidth: 0
Flags: HW
LayerCount: 2
UndoRedoHistory
Layer: 0
Undoes
EndUndoes
Redoes
EndRedoes
EndUndoRedoHistory
UndoRedoHistory
Layer: 1
Undoes
EndUndoes
Redoes
EndRedoes
EndUndoRedoHistory
Fore
SplineSet
81 587 m 1
 140 587 l 1
 278 744 l 1
 190 744 l 1
 81 587 l 1
214 587 m 1
 274 587 l 1
 412 744 l 1
 324 744 l 1
 214 587 l 1
171 513 m 0
EndSplineSet
EndChar

StartChar: hyphen
Encoding: 45 45 173
Width: 363
VWidth: 0
Flags: HW
LayerCount: 2
UndoRedoHistory
Layer: 0
Undoes
EndUndoes
Redoes
EndRedoes
EndUndoRedoHistory
UndoRedoHistory
Layer: 1
Undoes
EndUndoes
Redoes
EndRedoes
EndUndoRedoHistory
Fore
SplineSet
40 244 m 1
 326 244 l 1
 326 313 l 1
 40 313 l 1
 40 244 l 1
EndSplineSet
EndChar

StartChar: i
Encoding: 105 105 174
Width: 300
VWidth: 0
Flags: HW
LayerCount: 2
UndoRedoHistory
Layer: 0
Undoes
EndUndoes
Redoes
EndRedoes
EndUndoRedoHistory
UndoRedoHistory
Layer: 1
Undoes
EndUndoes
Redoes
EndRedoes
EndUndoRedoHistory
Fore
SplineSet
84 513 m 1
 84 131 l 2
 84 -9 196 -35 312 13 c 1
 301 72 l 1
 233 48 166 38 166 134 c 2
 166 513 l 1
 84 513 l 1
72 672 m 0
 72 639 99 622 126 622 c 0
 153 622 180 639 180 672 c 0
 180 705 153 722 126 722 c 0
 99 722 72 705 72 672 c 0
EndSplineSet
EndChar

StartChar: infinity
Encoding: 8734 8734 181
Width: 861
VWidth: 0
Flags: HW
LayerCount: 2
UndoRedoHistory
Layer: 0
Undoes
EndUndoes
Redoes
EndRedoes
EndUndoRedoHistory
UndoRedoHistory
Layer: 1
Undoes
EndUndoes
Redoes
EndRedoes
EndUndoRedoHistory
Fore
SplineSet
230 118 m 0
 250 118 269 121 287 127 c 0
 349 149 392 196 430 244 c 1
 463 202 495 171 527 150 c 0
 559 129 593 118 630 118 c 0
 654 118 677 123 699 131 c 0
 761 155 810 213 810 298 c 0
 810 324 806 346 798 368 c 0
 774 430 717 472 631 472 c 0
 609 472 590 469 572 463 c 0
 510 442 468 394 431 346 c 1
 417 365 402 382 386 398 c 0
 348 436 300 472 228 472 c 0
 176 472 131 450 102 424 c 0
 73 398 48 358 48 306 c 0
 48 280 52 256 61 234 c 0
 86 170 142 118 230 118 c 0
232 178 m 0
 214 178 197 182 183 188 c 0
 145 206 113 242 113 296 c 0
 113 312 116 328 121 342 c 0
 136 384 170 414 226 414 c 0
 244 414 260 411 276 405 c 0
 329 384 365 339 396 294 c 1
 374 264 348 234 320 212 c 0
 297 194 270 178 232 178 c 0
632 178 m 0
 596 178 571 190 548 208 c 0
 516 232 490 262 464 296 c 1
 484 326 510 356 538 378 c 0
 562 396 591 414 629 414 c 0
 645 414 660 412 674 406 c 0
 710 391 741 359 741 309 c 0
 741 233 708 178 632 178 c 0
EndSplineSet
EndChar

StartChar: integral
Encoding: 8747 8747 182
Width: 350
VWidth: 0
Flags: HW
LayerCount: 2
UndoRedoHistory
Layer: 0
Undoes
EndUndoes
Redoes
EndRedoes
EndUndoRedoHistory
UndoRedoHistory
Layer: 1
Undoes
EndUndoes
Redoes
EndRedoes
EndUndoRedoHistory
Fore
SplineSet
130 -200 m 0
 242 -200 278 -123 278 -12 c 2
 278 640 l 2
 278 708 292 748 360 748 c 0
 378 748 402 745 415 740 c 1
 414 805 l 1
 392 810 374 816 346 816 c 0
 234 816 196 739 196 628 c 2
 196 -24 l 2
 196 -92 184 -132 116 -132 c 0
 98 -132 74 -129 61 -124 c 1
 62 -189 l 1
 86 -195 100 -200 130 -200 c 0
EndSplineSet
EndChar

StartChar: j
Encoding: 106 106 185
Width: 268
VWidth: 0
Flags: HW
LayerCount: 2
UndoRedoHistory
Layer: 0
Undoes
EndUndoes
Redoes
EndRedoes
EndUndoRedoHistory
UndoRedoHistory
Layer: 1
Undoes
EndUndoes
Redoes
EndRedoes
EndUndoRedoHistory
Fore
SplineSet
104 513 m 1
 104 14 l 2
 104 -170 18 -184 -72 -154 c 1
 -81 -218 l 1
 63 -262 186 -208 186 18 c 2
 186 513 l 1
 104 513 l 1
92 672 m 0
 92 639 118 622 145 622 c 0
 172 622 199 639 199 672 c 0
 199 705 173 722 146 722 c 0
 119 722 92 705 92 672 c 0
EndSplineSet
EndChar

StartChar: k
Encoding: 107 107 187
Width: 552
VWidth: 0
Flags: HW
LayerCount: 2
UndoRedoHistory
Layer: 0
Undoes
EndUndoes
Redoes
EndRedoes
EndUndoRedoHistory
UndoRedoHistory
Layer: 1
Undoes
EndUndoes
Redoes
EndRedoes
EndUndoRedoHistory
Fore
SplineSet
76 748 m 1
 76 30 l 2
 76 -13 121 -19 148 14 c 1
 301 229 l 1
 382 94 l 2
 422 27 480 -8 532 -18 c 1
 576 44 l 1
 524 44 482 79 446 135 c 2
 347 290 l 1
 490 488 l 1
 416 513 l 1
 158 146 l 1
 158 763 l 1
 76 748 l 1
294 0 m 0
EndSplineSet
EndChar

StartChar: k.alt
Encoding: 65540 -1 188
Width: 540
VWidth: 0
Flags: HW
LayerCount: 2
UndoRedoHistory
Layer: 0
Undoes
EndUndoes
Redoes
EndRedoes
EndUndoRedoHistory
UndoRedoHistory
Layer: 1
Undoes
EndUndoes
Redoes
EndRedoes
EndUndoRedoHistory
Fore
SplineSet
89 0 m 1
 152 0 l 1
 268 172 383 342 499 513 c 1
 410 513 l 1
 172 154 l 1
 172 763 l 1
 89 763 l 1
 89 0 l 1
442 0 m 1
 533 0 l 1
 346 292 l 1
 289 242 l 1
 442 0 l 1
270 0 m 0
EndSplineSet
EndChar

StartChar: kgreenlandic
Encoding: 312 312 190
Width: 540
VWidth: 0
Flags: HW
LayerCount: 2
UndoRedoHistory
Layer: 0
Undoes
EndUndoes
Redoes
EndRedoes
EndUndoRedoHistory
UndoRedoHistory
Layer: 1
Undoes
EndUndoes
Redoes
EndRedoes
EndUndoRedoHistory
Fore
SplineSet
89 0 m 1
 172 0 l 1
 172 236 l 1
 426 0 l 1
 536 0 l 1
 440 87 348 169 252 256 c 1
 517 513 l 1
 404 513 l 1
 172 278 l 1
 172 513 l 1
 89 513 l 1
 89 0 l 1
EndSplineSet
EndChar

StartChar: l
Encoding: 108 108 191
Width: 342
VWidth: 0
Flags: HW
LayerCount: 2
UndoRedoHistory
Layer: 0
Undoes
EndUndoes
Redoes
EndRedoes
EndUndoRedoHistory
UndoRedoHistory
Layer: 1
Undoes
EndUndoes
Redoes
EndRedoes
EndUndoRedoHistory
Fore
SplineSet
84 748 m 1
 84 150 l 2
 84 -4 225 -40 360 18 c 1
 348 76 l 1
 260 38 166 42 166 146 c 2
 166 763 l 1
 84 748 l 1
205 728 m 0
207 0 m 0
290 480 m 0
EndSplineSet
EndChar

StartChar: less
Encoding: 60 60 193
Width: 728
VWidth: 0
Flags: HW
LayerCount: 2
UndoRedoHistory
Layer: 0
Undoes
EndUndoes
Redoes
EndRedoes
EndUndoRedoHistory
UndoRedoHistory
Layer: 1
Undoes
EndUndoes
Redoes
EndRedoes
EndUndoRedoHistory
Fore
SplineSet
612 24 m 1
 612 100 l 1
 219 276 l 1
 614 457 l 1
 614 534 l 1
 110 298 l 1
 110 254 l 1
 612 24 l 1
EndSplineSet
EndChar

StartChar: lessequal
Encoding: 8804 8804 194
Width: 674
VWidth: 0
Flags: HW
LayerCount: 2
UndoRedoHistory
Layer: 0
Undoes
EndUndoes
Redoes
EndRedoes
EndUndoRedoHistory
UndoRedoHistory
Layer: 1
Undoes
EndUndoes
Redoes
EndRedoes
EndUndoRedoHistory
Fore
SplineSet
573 108 m 1
 573 178 l 1
 186 355 l 1
 573 540 l 1
 573 610 l 1
 98 374 l 1
 98 333 l 1
 573 108 l 1
80 4 m 1
 588 4 l 1
 588 66 l 1
 80 66 l 1
 80 4 l 1
EndSplineSet
EndChar

StartChar: logicalnot
Encoding: 172 172 195
Width: 728
VWidth: 0
Flags: HW
LayerCount: 2
UndoRedoHistory
Layer: 0
Undoes
EndUndoes
Redoes
EndRedoes
EndUndoRedoHistory
UndoRedoHistory
Layer: 1
Undoes
EndUndoes
Redoes
EndRedoes
EndUndoRedoHistory
Fore
SplineSet
549 119 m 1
 624 119 l 1
 624 399 l 1
 100 399 l 1
 100 330 l 1
 549 330 l 1
 549 119 l 1
EndSplineSet
EndChar

StartChar: lozenge
Encoding: 9674 9674 196
Width: 623
VWidth: 0
Flags: HW
LayerCount: 2
UndoRedoHistory
Layer: 0
Undoes
EndUndoes
Redoes
EndRedoes
EndUndoRedoHistory
UndoRedoHistory
Layer: 1
Undoes
EndUndoes
Redoes
EndRedoes
EndUndoRedoHistory
Fore
SplineSet
281 -22 m 1
 334 -22 l 1
 565 356 l 1
 338 735 l 1
 285 735 l 1
 56 356 l 1
 281 -22 l 1
308 49 m 1
 250 153 189 254 130 356 c 1
 190 458 254 557 312 662 c 1
 369 558 431 458 490 356 c 1
 430 254 366 153 308 49 c 1
EndSplineSet
EndChar

StartChar: lslash
Encoding: 322 322 197
Width: 250
VWidth: 0
Flags: HW
LayerCount: 2
UndoRedoHistory
Layer: 0
Undoes
EndUndoes
Redoes
EndRedoes
EndUndoRedoHistory
UndoRedoHistory
Layer: 1
Undoes
EndUndoes
Redoes
EndRedoes
EndUndoRedoHistory
Fore
SplineSet
84 0 m 1
 166 0 l 1
 166 394 l 1
 252 445 l 1
 252 514 l 1
 166 462 l 1
 166 746 l 1
 84 746 l 1
 84 413 l 1
 0 363 l 1
 0 294 l 1
 84 344 l 1
 84 0 l 1
EndSplineSet
EndChar

StartChar: m
Encoding: 109 109 198
Width: 981
VWidth: 0
Flags: HW
LayerCount: 2
UndoRedoHistory
Layer: 0
Undoes
EndUndoes
Redoes
EndRedoes
EndUndoRedoHistory
UndoRedoHistory
Layer: 1
Undoes
EndUndoes
Redoes
EndRedoes
EndUndoRedoHistory
Fore
SplineSet
520 421 m 1
 508 398 l 1
 529 266 l 1
 529 398 620 454 696 454 c 0
 773 454 804 402 804 281 c 1
 804 142 l 2
 803 24 827 -26 936 -10 c 1
 944 60 l 1
 882 48 886 84 886 160 c 2
 887 282 l 2
 889 451 830 524 714 524 c 0
 630 524 548 483 520 421 c 1
42 487 m 1
 65 449 90 408 90 350 c 2
 90 0 l 1
 172 0 l 1
 172 326 l 1
 166 406 l 1
 166 448 146 480 124 513 c 1
 42 487 l 1
162 421 m 1
 171 266 l 1
 171 398 262 454 338 454 c 0
 415 454 446 402 446 281 c 2
 446 0 l 1
 528 0 l 1
 529 282 l 1
 531 451 472 524 356 524 c 0
 272 524 190 483 162 421 c 1
EndSplineSet
EndChar

StartChar: macron
Encoding: 175 175 199
Width: 363
VWidth: 0
Flags: HW
LayerCount: 2
UndoRedoHistory
Layer: 0
Undoes
EndUndoes
Redoes
EndRedoes
EndUndoRedoHistory
UndoRedoHistory
Layer: 1
Undoes
EndUndoes
Redoes
EndRedoes
EndUndoRedoHistory
Fore
SplineSet
40 592 m 1
 326 592 l 1
 326 658 l 1
 40 658 l 1
 40 592 l 1
182 513 m 0
EndSplineSet
EndChar

StartChar: minus
Encoding: 8722 8722 200
Width: 728
VWidth: 0
Flags: HW
LayerCount: 2
UndoRedoHistory
Layer: 0
Undoes
EndUndoes
Redoes
EndRedoes
EndUndoRedoHistory
UndoRedoHistory
Layer: 1
Undoes
EndUndoes
Redoes
EndRedoes
EndUndoRedoHistory
Fore
SplineSet
99 248 m 1
 624 248 l 1
 624 316 l 1
 99 316 l 1
 99 248 l 1
EndSplineSet
EndChar

StartChar: multiply
Encoding: 215 215 201
Width: 728
VWidth: 0
Flags: HW
LayerCount: 2
UndoRedoHistory
Layer: 0
Undoes
EndUndoes
Redoes
EndRedoes
EndUndoRedoHistory
UndoRedoHistory
Layer: 1
Undoes
EndUndoes
Redoes
EndRedoes
EndUndoRedoHistory
Fore
SplineSet
212 77 m 1
 361 225 l 1
 509 77 l 1
 561 129 l 1
 412 277 l 1
 561 425 l 1
 509 477 l 1
 361 328 l 1
 212 477 l 1
 161 426 l 1
 309 277 l 1
 161 128 l 1
 212 77 l 1
EndSplineSet
EndChar

StartChar: n
Encoding: 110 110 202
Width: 623
VWidth: 0
Flags: HW
LayerCount: 2
UndoRedoHistory
Layer: 0
Undoes
EndUndoes
Redoes
EndRedoes
EndUndoRedoHistory
UndoRedoHistory
Layer: 1
Undoes
EndUndoes
Redoes
EndRedoes
EndUndoRedoHistory
Fore
SplineSet
162 421 m 1
 171 266 l 1
 171 398 262 454 338 454 c 0
 415 454 446 402 446 281 c 1
 446 142 l 2
 445 24 469 -26 578 -10 c 1
 586 60 l 1
 524 48 528 84 528 160 c 2
 529 282 l 2
 531 451 472 524 356 524 c 0
 272 524 190 483 162 421 c 1
42 487 m 1
 65 449 90 408 90 350 c 2
 90 0 l 1
 172 0 l 1
 172 326 l 1
 166 406 l 1
 166 448 146 480 124 513 c 1
 42 487 l 1
338 513 m 0
315 0 m 0
EndSplineSet
EndChar

StartChar: n.alt
Encoding: 65541 -1 203
Width: 630
VWidth: 0
Flags: HW
LayerCount: 2
UndoRedoHistory
Layer: 0
Undoes
EndUndoes
Redoes
EndRedoes
EndUndoRedoHistory
UndoRedoHistory
Layer: 1
Undoes
EndUndoes
Redoes
EndRedoes
EndUndoRedoHistory
Fore
SplineSet
548 -12 m 1
 566 51 l 1
 528 59 523 72 523 128 c 2
 523 135 l 1
 524 284 l 1
 524 288 l 2
 524 433 480 526 334 526 c 0
 250 526 208 494 172 442 c 1
 160 513 l 1
 77 513 l 1
 80 489 90 392 90 350 c 2
 90 0 l 1
 172 0 l 1
 172 326 l 2
 172 400 243 456 320 456 c 0
 426 456 442 394 442 292 c 2
 442 286 l 1
 440 132 l 1
 440 124 l 2
 440 31 454 -1 548 -12 c 1
316 0 m 0
316 0 m 0
EndSplineSet
EndChar

StartChar: nine
Encoding: 57 57 205
Width: 623
VWidth: 0
Flags: HW
LayerCount: 2
UndoRedoHistory
Layer: 0
Undoes
EndUndoes
Redoes
EndRedoes
EndUndoRedoHistory
UndoRedoHistory
Layer: 1
Undoes
EndUndoes
Redoes
EndRedoes
EndUndoRedoHistory
Fore
SplineSet
264 -38 m 1
 498 299 l 2
 544 365 567 433 567 496 c 0
 567 622 488 742 310 742 c 0
 166 742 58 642 58 498 c 0
 58 362 150 258 304 258 c 0
 359 258 396 285 400 288 c 1
 196 0 l 1
 264 -38 l 1
314 326 m 0
 187 326 144 411 144 497 c 0
 144 603 209 667 316 667 c 0
 434 667 484 601 484 496 c 0
 484 396 428 326 314 326 c 0
EndSplineSet
EndChar

StartChar: nine.alt
Encoding: 65542 -1 206
Width: 594
VWidth: 0
Flags: HW
LayerCount: 2
UndoRedoHistory
Layer: 0
Undoes
EndUndoes
Redoes
EndRedoes
EndUndoRedoHistory
UndoRedoHistory
Layer: 1
Undoes
EndUndoes
Redoes
EndRedoes
EndUndoRedoHistory
Fore
SplineSet
257 -12 m 0
 303 -12 344 -2 380 17 c 0
 492 76 546 208 546 379 c 0
 546 435 542 485 530 528 c 0
 500 641 429 726 290 726 c 0
 252 726 218 720 188 708 c 0
 106 676 44 604 44 492 c 0
 44 459 50 429 60 401 c 0
 91 321 162 266 272 266 c 0
 362 266 423 296 459 354 c 1
 459 342 l 1
 457 264 438 193 406 144 c 0
 376 98 329 60 258 60 c 0
 200 60 154 79 118 117 c 1
 92 60 l 1
 126 16 181 -12 257 -12 c 0
286 336 m 0
 186 336 132 396 132 494 c 0
 132 517 135 538 143 558 c 0
 163 614 211 656 286 656 c 0
 312 656 337 652 357 642 c 0
 411 616 453 563 453 486 c 0
 453 463 449 442 440 424 c 0
 415 372 361 336 286 336 c 0
EndSplineSet
EndChar

StartChar: notequal
Encoding: 8800 8800 207
Width: 674
VWidth: 0
Flags: HW
LayerCount: 2
UndoRedoHistory
Layer: 0
Undoes
EndUndoes
Redoes
EndRedoes
EndUndoRedoHistory
UndoRedoHistory
Layer: 1
Undoes
EndUndoes
Redoes
EndRedoes
EndUndoRedoHistory
Fore
SplineSet
228 23 m 1
 298 162 l 1
 591 162 l 1
 586 222 l 1
 328 222 l 1
 402 364 l 1
 591 364 l 1
 586 424 l 1
 431 424 l 1
 494 552 l 1
 432 562 l 1
 364 424 l 1
 80 424 l 1
 85 364 l 1
 336 364 l 1
 262 222 l 1
 80 222 l 1
 85 162 l 1
 232 162 l 1
 168 32 l 1
 228 23 l 1
EndSplineSet
EndChar

StartChar: numbersign
Encoding: 35 35 209
Width: 620
VWidth: 0
Flags: HW
LayerCount: 2
UndoRedoHistory
Layer: 0
Undoes
EndUndoes
Redoes
EndRedoes
EndUndoRedoHistory
UndoRedoHistory
Layer: 1
Undoes
EndUndoes
Redoes
EndRedoes
EndUndoRedoHistory
Fore
SplineSet
105 30 m 1
 178 30 l 1
 219 242 l 1
 350 242 l 1
 310 30 l 1
 382 30 l 1
 424 242 l 1
 554 242 l 1
 560 306 l 1
 434 306 l 1
 460 443 l 1
 585 443 l 1
 592 505 l 1
 472 505 l 1
 510 710 l 1
 438 710 l 1
 400 505 l 1
 269 505 l 1
 308 710 l 1
 234 710 l 1
 195 505 l 1
 60 505 l 1
 54 443 l 1
 184 443 l 1
 176 397 167 353 159 306 c 1
 26 306 l 1
 21 242 l 1
 147 242 l 1
 105 30 l 1
230 306 m 1
 257 443 l 1
 388 443 l 1
 362 306 l 1
 230 306 l 1
EndSplineSet
EndChar

StartChar: o
Encoding: 111 111 210
Width: 614
VWidth: 0
Flags: HW
LayerCount: 2
UndoRedoHistory
Layer: 0
Undoes
EndUndoes
Redoes
EndRedoes
EndUndoRedoHistory
UndoRedoHistory
Layer: 1
Undoes
EndUndoes
Redoes
EndRedoes
EndUndoRedoHistory
Fore
SplineSet
46 256 m 0
 46 96 152 -11 311 -11 c 0
 467 -11 571 96 571 256 c 0
 571 416 466 524 310 524 c 0
 152 524 46 417 46 256 c 0
486 256 m 0
 486 138 416 58 311 58 c 0
 203 58 131 136 131 254 c 0
 131 374 202 454 310 454 c 0
 416 454 486 375 486 256 c 0
310 513 m 0
EndSplineSet
EndChar

StartChar: oe
Encoding: 339 339 214
Width: 984
VWidth: 0
Flags: HW
LayerCount: 2
UndoRedoHistory
Layer: 0
Undoes
EndUndoes
Redoes
EndRedoes
EndUndoRedoHistory
UndoRedoHistory
Layer: 1
Undoes
EndUndoes
Redoes
EndRedoes
EndUndoRedoHistory
Fore
SplineSet
305 -14 m 0
 411 -14 481 28 511 104 c 1
 541 30 607 -14 705 -14 c 0
 808 -14 878 31 918 103 c 1
 874 146 l 1
 842 96 786 54 710 54 c 0
 685 54 664 60 645 68 c 0
 591 93 558 148 556 225 c 1
 556 235 l 1
 934 236 l 1
 934 262 l 2
 934 417 862 526 708 526 c 0
 608 526 548 481 514 410 c 1
 476 482 415 526 310 526 c 0
 268 526 231 519 198 505 c 0
 108 466 46 380 46 254 c 0
 46 217 52 182 64 150 c 0
 98 55 177 -14 305 -14 c 0
310 54 m 0
 280 54 253 60 231 70 c 0
 169 100 132 164 132 254 c 0
 132 282 136 308 144 332 c 0
 165 402 216 458 306 458 c 0
 423 458 472 373 472 256 c 0
 472 144 422 54 310 54 c 0
556 304 m 1
 558 324 562 344 570 362 c 0
 592 414 639 458 712 458 c 0
 804 458 848 396 848 304 c 1
 556 304 l 1
492 0 m 0
EndSplineSet
EndChar

StartChar: ogonek
Encoding: 731 731 215
Width: 253
VWidth: 0
Flags: HW
LayerCount: 2
UndoRedoHistory
Layer: 0
Undoes
EndUndoes
Redoes
EndRedoes
EndUndoRedoHistory
UndoRedoHistory
Layer: 1
Undoes
EndUndoes
Redoes
EndRedoes
EndUndoRedoHistory
Fore
SplineSet
133 -195 m 0
 165 -195 199 -190 222 -180 c 1
 222 -125 l 1
 199 -134 176 -140 144 -140 c 0
 118 -140 94 -126 94 -100 c 0
 94 -92 97 -84 102 -76 c 0
 123 -44 162 -21 196 0 c 1
 132 6 l 1
 105 -7 78 -24 58 -44 c 0
 42 -60 24 -83 24 -112 c 0
 24 -126 26 -138 32 -148 c 0
 49 -178 86 -195 133 -195 c 0
166 5 m 0
EndSplineSet
EndChar

StartChar: one
Encoding: 49 49 217
Width: 594
VWidth: 0
Flags: HW
LayerCount: 2
UndoRedoHistory
Layer: 0
Undoes
EndUndoes
Redoes
EndRedoes
EndUndoRedoHistory
UndoRedoHistory
Layer: 1
Undoes
EndUndoes
Redoes
EndRedoes
EndUndoRedoHistory
Fore
SplineSet
276 0 m 1
 362 0 l 1
 362 719 l 1
 280 718 l 1
 246 692 184 656 126 630 c 1
 147 564 l 1
 200 586 243 610 276 635 c 1
 276 0 l 1
EndSplineSet
EndChar

StartChar: ordfeminine
Encoding: 170 170 220
Width: 371
VWidth: 0
Flags: HW
LayerCount: 2
UndoRedoHistory
Layer: 0
Undoes
EndUndoes
Redoes
EndRedoes
EndUndoRedoHistory
UndoRedoHistory
Layer: 1
Undoes
EndUndoes
Redoes
EndRedoes
EndUndoRedoHistory
Fore
SplineSet
158 384 m 0
 208 384 246 402 268 430 c 1
 272 393 l 1
 337 393 l 1
 335 423 334 435 334 457 c 2
 334 618 l 1
 334 700 279 738 197 738 c 0
 131 738 82 718 56 675 c 1
 89 638 l 1
 111 670 144 684 194 684 c 0
 249 684 268 665 268 610 c 2
 268 606 l 1
 231 601 191 601 154 596 c 1
 94 587 33 556 33 488 c 0
 33 472 36 458 42 445 c 0
 60 407 102 384 158 384 c 0
169 436 m 0
 130 436 101 449 101 488 c 0
 101 557 212 544 268 555 c 1
 268 542 l 1
 265 480 234 436 169 436 c 0
EndSplineSet
EndChar

StartChar: ordmasculine
Encoding: 186 186 221
Width: 411
VWidth: 0
Flags: HW
LayerCount: 2
UndoRedoHistory
Layer: 0
Undoes
EndUndoes
Redoes
EndRedoes
EndUndoRedoHistory
UndoRedoHistory
Layer: 1
Undoes
EndUndoes
Redoes
EndRedoes
EndUndoRedoHistory
Fore
SplineSet
208 384 m 0
 237 384 263 388 285 398 c 0
 345 423 387 476 387 560 c 0
 387 585 384 608 376 630 c 0
 353 695 296 738 208 738 c 0
 179 738 152 733 130 724 c 0
 70 699 26 646 26 562 c 0
 26 450 96 384 208 384 c 0
208 438 m 0
 134 438 96 489 96 562 c 0
 96 632 135 684 206 684 c 0
 278 684 318 632 318 560 c 0
 318 490 278 438 208 438 c 0
EndSplineSet
EndChar

StartChar: oslash
Encoding: 248 248 222
Width: 618
VWidth: 0
Flags: HW
LayerCount: 2
UndoRedoHistory
Layer: 0
Undoes
EndUndoes
Redoes
EndRedoes
EndUndoRedoHistory
UndoRedoHistory
Layer: 1
Undoes
EndUndoes
Redoes
EndRedoes
EndUndoRedoHistory
Fore
SplineSet
173 -130 m 1
 494 622 l 1
 442 638 l 1
 124 -114 l 1
 173 -130 l 1
310 0 m 0
EndSplineSet
Refer: 210 111 N 1 0 0 1 0 0 2
EndChar

StartChar: p
Encoding: 112 112 224
Width: 625
VWidth: 0
Flags: HW
LayerCount: 2
UndoRedoHistory
Layer: 0
Undoes
EndUndoes
Redoes
EndRedoes
EndUndoRedoHistory
UndoRedoHistory
Layer: 1
Undoes
EndUndoes
Redoes
EndRedoes
EndUndoRedoHistory
Fore
SplineSet
158 420 m 1
 154 460 136 494 110 513 c 1
 41 474 l 1
 67 446 86 407 86 359 c 2
 86 -228 l 1
 168 -220 l 1
 168 48 l 1
 206 11 277 -11 347 -11 c 0
 494 -11 580 92 580 264 c 0
 580 428 496 524 352 524 c 0
 270 524 194 486 158 420 c 1
496 260 m 0
 496 132 436 58 335 58 c 0
 268 58 202 86 168 134 c 1
 168 217 l 2
 168 365 239 454 348 454 c 0
 441 454 496 382 496 260 c 0
EndSplineSet
EndChar

StartChar: paragraph
Encoding: 182 182 225
Width: 606
VWidth: 0
Flags: HW
LayerCount: 2
UndoRedoHistory
Layer: 0
Undoes
EndUndoes
Redoes
EndRedoes
EndUndoRedoHistory
UndoRedoHistory
Layer: 1
Undoes
EndUndoes
Redoes
EndRedoes
EndUndoRedoHistory
Fore
SplineSet
221 -74 m 1
 292 -74 l 1
 292 664 l 1
 396 664 l 1
 396 -74 l 1
 461 -74 l 1
 461 664 l 1
 504 664 l 1
 504 726 l 1
 312 726 l 2
 180 726 54 697 54 565 c 0
 54 539 58 516 67 495 c 0
 91 439 143 394 221 393 c 1
 221 -74 l 1
EndSplineSet
EndChar

StartChar: parenleft
Encoding: 40 40 226
Width: 312
VWidth: 0
Flags: HW
LayerCount: 2
UndoRedoHistory
Layer: 0
Undoes
EndUndoes
Redoes
EndRedoes
EndUndoRedoHistory
UndoRedoHistory
Layer: 1
Undoes
EndUndoes
Redoes
EndRedoes
EndUndoRedoHistory
Fore
SplineSet
287 776 m 1
 214 776 l 1
 24 478 30 177 210 -107 c 1
 285 -107 l 1
 117 160 109 497 287 776 c 1
EndSplineSet
EndChar

StartChar: parenright
Encoding: 41 41 227
Width: 312
VWidth: 0
Flags: HW
LayerCount: 2
UndoRedoHistory
Layer: 0
Undoes
EndUndoes
Redoes
EndRedoes
EndUndoRedoHistory
UndoRedoHistory
Layer: 1
Undoes
EndUndoes
Redoes
EndRedoes
EndUndoRedoHistory
Fore
SplineSet
26 776 m 1
 204 497 196 160 28 -107 c 1
 102 -107 l 1
 282 177 290 478 100 776 c 1
 26 776 l 1
EndSplineSet
EndChar

StartChar: partialdiff
Encoding: 8706 8706 228
Width: 582
VWidth: 0
Flags: HW
LayerCount: 2
UndoRedoHistory
Layer: 0
Undoes
EndUndoes
Redoes
EndRedoes
EndUndoRedoHistory
UndoRedoHistory
Layer: 1
Undoes
EndUndoes
Redoes
EndRedoes
EndUndoRedoHistory
Fore
SplineSet
246 -12 m 0
 278 -12 309 -6 336 6 c 0
 393 30 436 73 466 126 c 0
 510 204 537 306 537 426 c 0
 537 484 532 535 520 578 c 0
 492 686 426 766 294 766 c 0
 233 766 178 746 140 721 c 1
 146 652 l 1
 181 676 225 700 282 700 c 0
 308 700 332 694 353 683 c 0
 421 647 452 562 452 456 c 0
 452 446 451 428 451 418 c 1
 416 464 368 501 293 501 c 0
 258 501 225 493 195 478 c 0
 107 434 42 340 42 210 c 0
 42 178 46 149 54 122 c 0
 80 43 142 -12 246 -12 c 0
248 56 m 0
 230 56 212 58 197 66 c 0
 151 88 126 140 126 208 c 0
 126 273 148 329 178 367 c 0
 205 402 246 434 304 434 c 0
 322 434 338 432 352 426 c 0
 396 408 426 372 442 328 c 1
 434 254 411 185 378 136 c 0
 350 96 310 56 248 56 c 0
EndSplineSet
EndChar

StartChar: percent
Encoding: 37 37 229
Width: 991
VWidth: 0
Flags: HW
LayerCount: 2
UndoRedoHistory
Layer: 0
Undoes
EndUndoes
Redoes
EndRedoes
EndUndoRedoHistory
UndoRedoHistory
Layer: 1
Undoes
EndUndoes
Redoes
EndRedoes
EndUndoRedoHistory
Fore
SplineSet
260 343 m 0
 288 343 312 348 334 358 c 0
 396 386 438 446 438 534 c 0
 438 647 377 724 263 724 c 0
 235 724 210 719 188 709 c 0
 126 681 84 620 84 532 c 0
 84 506 88 481 96 458 c 0
 118 392 172 343 260 343 c 0
724 -14 m 0
 752 -14 776 -8 798 2 c 0
 860 30 903 90 903 178 c 0
 903 291 842 368 728 368 c 0
 700 368 675 362 653 352 c 0
 591 324 548 264 548 176 c 0
 548 150 552 124 560 101 c 0
 583 35 636 -14 724 -14 c 0
262 400 m 0
 188 400 156 458 156 532 c 0
 156 606 188 668 262 668 c 0
 280 668 296 664 309 657 c 0
 347 637 367 592 367 534 c 0
 367 461 335 400 262 400 c 0
726 43 m 0
 708 43 692 47 679 54 c 0
 641 74 620 117 620 175 c 0
 620 249 653 311 727 311 c 0
 800 311 831 252 831 178 c 0
 831 105 800 43 726 43 c 0
220 -2 m 1
 297 -2 l 1
 750 718 l 1
 672 718 l 1
 220 -2 l 1
EndSplineSet
EndChar

StartChar: period
Encoding: 46 46 230
Width: 269
VWidth: 0
Flags: HW
LayerCount: 2
UndoRedoHistory
Layer: 0
Undoes
EndUndoes
Redoes
EndRedoes
EndUndoRedoHistory
UndoRedoHistory
Layer: 1
Undoes
EndUndoes
Redoes
EndRedoes
EndUndoRedoHistory
Fore
SplineSet
126 0 m 0
 153 0 180 19 180 52 c 0
 180 80 160 106 126 106 c 0
 99 106 72 86 72 53 c 0
 72 25 92 0 126 0 c 0
EndSplineSet
EndChar

StartChar: periodcentered
Encoding: 183 183 231
Width: 221
VWidth: 0
Flags: HW
LayerCount: 2
UndoRedoHistory
Layer: 0
Undoes
EndUndoes
Redoes
EndRedoes
EndUndoRedoHistory
UndoRedoHistory
Layer: 1
Undoes
EndUndoes
Redoes
EndRedoes
EndUndoRedoHistory
Fore
SplineSet
38 256 m 1
 146 256 l 1
 146 362 l 1
 38 362 l 1
 38 256 l 1
-16 418 m 0
EndSplineSet
EndChar

StartChar: perthousand
Encoding: 8240 8240 232
Width: 1192
VWidth: 0
Flags: HW
LayerCount: 2
UndoRedoHistory
Layer: 0
Undoes
EndUndoes
Redoes
EndRedoes
EndUndoRedoHistory
UndoRedoHistory
Layer: 1
Undoes
EndUndoes
Redoes
EndRedoes
EndUndoRedoHistory
Fore
SplineSet
205 370 m 0
 231 370 255 374 276 383 c 0
 334 407 374 464 374 546 c 0
 374 656 316 724 206 724 c 0
 179 724 155 719 134 710 c 0
 75 686 36 630 36 548 c 0
 36 440 96 370 205 370 c 0
586 -14 m 0
 613 -14 637 -9 658 0 c 0
 717 25 756 80 756 162 c 0
 756 272 698 340 588 340 c 0
 560 340 536 336 515 327 c 0
 455 302 418 247 418 164 c 0
 418 56 477 -14 586 -14 c 0
980 -14 m 0
 1007 -14 1031 -9 1052 0 c 0
 1110 24 1150 80 1150 162 c 0
 1150 272 1092 340 982 340 c 0
 954 340 930 336 909 327 c 0
 849 302 812 247 812 164 c 0
 812 56 872 -14 980 -14 c 0
207 426 m 0
 139 426 110 480 110 548 c 0
 110 614 140 668 206 668 c 0
 273 668 302 614 302 546 c 0
 302 481 273 426 207 426 c 0
122 -10 m 1
 199 -10 l 1
 666 718 l 1
 592 718 l 1
 122 -10 l 1
588 43 m 0
 520 43 490 96 490 164 c 0
 490 230 521 284 587 284 c 0
 655 284 684 232 684 164 c 0
 684 98 654 43 588 43 c 0
982 43 m 0
 914 43 884 96 884 164 c 0
 884 230 915 284 981 284 c 0
 1048 284 1078 231 1078 164 c 0
 1078 98 1048 43 982 43 c 0
EndSplineSet
EndChar

StartChar: pi
Encoding: 960 960 233
Width: 643
VWidth: 0
Flags: HW
LayerCount: 2
UndoRedoHistory
Layer: 0
Undoes
EndUndoes
Redoes
EndRedoes
EndUndoRedoHistory
UndoRedoHistory
Layer: 1
Undoes
EndUndoes
Redoes
EndRedoes
EndUndoRedoHistory
Fore
SplineSet
530 -4 m 0
 554 -4 577 -1 599 3 c 1
 594 17 592 32 592 50 c 0
 592 55 593 60 593 65 c 2
 594 80 l 1
 580 76 566 74 554 74 c 0
 512 74 505 103 505 144 c 2
 505 454 l 1
 607 454 l 1
 607 520 l 1
 184 520 l 2
 113 520 48 518 8 488 c 1
 17 423 l 1
 55 443 98 452 156 454 c 1
 154 370 148 284 138 206 c 0
 128 132 116 52 86 0 c 1
 170 0 l 1
 176 10 182 26 187 44 c 0
 219 168 229 310 240 454 c 1
 426 454 l 1
 426 140 l 2
 426 52 444 -4 530 -4 c 0
EndSplineSet
EndChar

StartChar: plus
Encoding: 43 43 234
Width: 728
VWidth: 0
Flags: HW
LayerCount: 2
UndoRedoHistory
Layer: 0
Undoes
EndUndoes
Redoes
EndRedoes
EndUndoRedoHistory
UndoRedoHistory
Layer: 1
Undoes
EndUndoes
Redoes
EndRedoes
EndUndoRedoHistory
Fore
SplineSet
323 31 m 1
 398 31 l 1
 398 242 l 1
 623 242 l 1
 623 312 l 1
 398 312 l 1
 398 524 l 1
 324 524 l 1
 324 312 l 1
 99 312 l 1
 99 242 l 1
 323 242 l 1
 323 31 l 1
EndSplineSet
EndChar

StartChar: plusminus
Encoding: 177 177 235
Width: 728
VWidth: 0
Flags: HW
LayerCount: 2
UndoRedoHistory
Layer: 0
Undoes
EndUndoes
Redoes
EndRedoes
EndUndoRedoHistory
UndoRedoHistory
Layer: 1
Undoes
EndUndoes
Redoes
EndRedoes
EndUndoRedoHistory
Fore
SplineSet
324 112 m 1
 399 112 l 1
 399 298 l 1
 622 298 l 1
 622 366 l 1
 397 366 l 1
 397 554 l 1
 322 554 l 1
 322 366 l 1
 94 366 l 1
 100 298 l 1
 324 298 l 1
 324 112 l 1
100 0 m 1
 624 0 l 1
 624 69 l 1
 100 69 l 1
 100 0 l 1
EndSplineSet
EndChar

StartChar: product
Encoding: 8719 8719 236
Width: 783
VWidth: 0
Flags: HW
LayerCount: 2
UndoRedoHistory
Layer: 0
Undoes
EndUndoes
Redoes
EndRedoes
EndUndoRedoHistory
UndoRedoHistory
Layer: 1
Undoes
EndUndoes
Redoes
EndRedoes
EndUndoRedoHistory
Fore
SplineSet
126 -164 m 1
 213 -164 l 1
 213 639 l 1
 574 639 l 1
 574 -164 l 1
 664 -164 l 1
 664 639 l 1
 720 639 l 1
 728 712 l 1
 55 712 l 1
 63 639 l 1
 126 639 l 1
 126 -164 l 1
EndSplineSet
EndChar

StartChar: q
Encoding: 113 113 237
Width: 619
VWidth: 0
Flags: HW
LayerCount: 2
UndoRedoHistory
Layer: 0
Undoes
EndUndoes
Redoes
EndRedoes
EndUndoRedoHistory
UndoRedoHistory
Layer: 1
Undoes
EndUndoes
Redoes
EndRedoes
EndUndoRedoHistory
Fore
SplineSet
46 253 m 0
 46 101 134 -11 286 -11 c 0
 357 -11 415 16 454 64 c 1
 454 -213 l 1
 512 -270 l 1
 536 -258 680 -182 698 -172 c 1
 662 -110 l 1
 662 -110 556 -168 536 -178 c 1
 536 406 l 2
 536 458 544 496 546 513 c 1
 462 513 l 1
 454 444 l 1
 426 492 386 524 292 524 c 0
 137 524 46 407 46 253 c 0
454 272 m 2
 454 151 l 1
 428 106 361 58 294 58 c 0
 182 58 131 142 131 254 c 0
 131 368 180 454 294 454 c 0
 402 454 454 380 454 272 c 2
EndSplineSet
EndChar

StartChar: question
Encoding: 63 63 238
Width: 515
VWidth: 0
Flags: HW
LayerCount: 2
UndoRedoHistory
Layer: 0
Undoes
EndUndoes
Redoes
EndRedoes
EndUndoRedoHistory
UndoRedoHistory
Layer: 1
Undoes
EndUndoes
Redoes
EndRedoes
EndUndoRedoHistory
Fore
SplineSet
178 184 m 1
 240 184 l 1
 238 199 238 212 238 224 c 0
 238 372 450 393 450 566 c 0
 450 668 374 742 232 742 c 0
 179 742 132 726 92 706 c 1
 92 631 l 1
 182 682 365 688 365 562 c 0
 365 422 173 392 173 265 c 0
 173 240 176 208 178 184 c 1
212 0 m 0
 239 0 266 19 266 52 c 0
 266 80 247 106 213 106 c 0
 186 106 159 86 159 53 c 0
 159 25 178 0 212 0 c 0
EndSplineSet
EndChar

StartChar: quotedbl
Encoding: 34 34 240
Width: 359
VWidth: 0
Flags: HW
LayerCount: 2
UndoRedoHistory
Layer: 0
Undoes
EndUndoes
Redoes
EndRedoes
EndUndoRedoHistory
UndoRedoHistory
Layer: 1
Undoes
EndUndoes
Redoes
EndRedoes
EndUndoRedoHistory
Fore
SplineSet
75 494 m 1
 140 494 l 1
 140 726 l 1
 57 726 l 1
 75 494 l 1
220 494 m 1
 284 494 l 1
 284 726 l 1
 202 726 l 1
 220 494 l 1
EndSplineSet
EndChar

StartChar: quotedblbase
Encoding: 8222 8222 241
Width: 511
VWidth: 0
Flags: HW
LayerCount: 2
UndoRedoHistory
Layer: 0
Undoes
EndUndoes
Redoes
EndRedoes
EndUndoRedoHistory
UndoRedoHistory
Layer: 1
Undoes
EndUndoes
Redoes
EndRedoes
EndUndoRedoHistory
Fore
SplineSet
89 -119 m 1
 156 -119 l 1
 232 100 l 1
 142 100 l 1
 89 -119 l 1
268 -119 m 1
 335 -119 l 1
 412 100 l 1
 320 100 l 1
 268 -119 l 1
EndSplineSet
EndChar

StartChar: quotedblleft
Encoding: 8220 8220 242
Width: 511
VWidth: 0
Flags: HW
LayerCount: 2
UndoRedoHistory
Layer: 0
Undoes
EndUndoes
Redoes
EndRedoes
EndUndoRedoHistory
UndoRedoHistory
Layer: 1
Undoes
EndUndoes
Redoes
EndRedoes
EndUndoRedoHistory
Fore
SplineSet
90 512 m 1
 180 512 l 1
 233 732 l 1
 166 732 l 1
 90 512 l 1
264 512 m 1
 356 512 l 1
 408 732 l 1
 341 732 l 1
 264 512 l 1
EndSplineSet
EndChar

StartChar: quotedblright
Encoding: 8221 8221 243
Width: 511
VWidth: 0
Flags: HW
LayerCount: 2
UndoRedoHistory
Layer: 0
Undoes
EndUndoes
Redoes
EndRedoes
EndUndoRedoHistory
UndoRedoHistory
Layer: 1
Undoes
EndUndoes
Redoes
EndRedoes
EndUndoRedoHistory
Fore
SplineSet
104 512 m 1
 170 512 l 1
 247 732 l 1
 156 732 l 1
 104 512 l 1
267 512 m 1
 334 512 l 1
 410 732 l 1
 320 732 l 1
 267 512 l 1
EndSplineSet
EndChar

StartChar: quoteleft
Encoding: 8216 8216 244
Width: 275
VWidth: 0
Flags: HW
LayerCount: 2
UndoRedoHistory
Layer: 0
Undoes
EndUndoes
Redoes
EndRedoes
EndUndoRedoHistory
UndoRedoHistory
Layer: 1
Undoes
EndUndoes
Redoes
EndRedoes
EndUndoRedoHistory
Fore
SplineSet
65 512 m 1
 156 512 l 1
 208 732 l 1
 142 732 l 1
 65 512 l 1
EndSplineSet
EndChar

StartChar: quoteright
Encoding: 8217 8217 245
Width: 275
VWidth: 0
Flags: HW
LayerCount: 2
UndoRedoHistory
Layer: 0
Undoes
EndUndoes
Redoes
EndRedoes
EndUndoRedoHistory
UndoRedoHistory
Layer: 1
Undoes
EndUndoes
Redoes
EndRedoes
EndUndoRedoHistory
Fore
SplineSet
70 512 m 1
 136 512 l 1
 213 732 l 1
 122 732 l 1
 70 512 l 1
EndSplineSet
EndChar

StartChar: quotesinglbase
Encoding: 8218 8218 246
Width: 275
VWidth: 0
Flags: HW
LayerCount: 2
UndoRedoHistory
Layer: 0
Undoes
EndUndoes
Redoes
EndRedoes
EndUndoRedoHistory
UndoRedoHistory
Layer: 1
Undoes
EndUndoes
Redoes
EndRedoes
EndUndoRedoHistory
Fore
SplineSet
62 -119 m 1
 129 -119 l 1
 206 100 l 1
 116 100 l 1
 62 -119 l 1
EndSplineSet
EndChar

StartChar: quotesingle
Encoding: 39 39 247
Width: 276
VWidth: 0
Flags: HW
LayerCount: 2
UndoRedoHistory
Layer: 0
Undoes
EndUndoes
Redoes
EndRedoes
EndUndoRedoHistory
UndoRedoHistory
Layer: 1
Undoes
EndUndoes
Redoes
EndRedoes
EndUndoRedoHistory
Fore
SplineSet
106 494 m 1
 171 494 l 1
 171 726 l 1
 88 726 l 1
 106 494 l 1
EndSplineSet
EndChar

StartChar: r
Encoding: 114 114 248
Width: 395
VWidth: 0
Flags: HW
LayerCount: 2
UndoRedoHistory
Layer: 0
Undoes
EndUndoes
Redoes
EndRedoes
EndUndoRedoHistory
UndoRedoHistory
Layer: 1
Undoes
EndUndoes
Redoes
EndRedoes
EndUndoRedoHistory
Fore
SplineSet
166 426 m 1
 92 390 l 1
 174 284 l 1
 174 402 237 454 310 454 c 0
 352 454 374 445 382 442 c 1
 389 514 l 1
 371 519 354 524 312 524 c 0
 248 524 192 480 166 426 c 1
45 487 m 1
 68 449 92 408 92 350 c 2
 92 0 l 1
 174 0 l 1
 174 326 l 1
 168 406 l 1
 168 448 150 480 128 513 c 1
 45 487 l 1
246 513 m 0
200 0 m 0
EndSplineSet
EndChar

StartChar: radical
Encoding: 8730 8730 249
Width: 656
VWidth: 0
Flags: HW
LayerCount: 2
UndoRedoHistory
Layer: 0
Undoes
EndUndoes
Redoes
EndRedoes
EndUndoRedoHistory
UndoRedoHistory
Layer: 1
Undoes
EndUndoes
Redoes
EndRedoes
EndUndoRedoHistory
Fore
SplineSet
306 -76 m 1
 373 -76 l 1
 606 798 l 1
 541 798 l 1
 354 108 l 1
 334 20 l 1
 306 107 l 1
 191 412 l 1
 44 387 l 1
 54 331 l 1
 140 345 l 1
 306 -76 l 1
EndSplineSet
EndChar

StartChar: registered
Encoding: 174 174 252
Width: 913
VWidth: 0
Flags: HW
LayerCount: 2
UndoRedoHistory
Layer: 0
Undoes
EndUndoes
Redoes
EndRedoes
EndUndoRedoHistory
UndoRedoHistory
Layer: 1
Undoes
EndUndoes
Redoes
EndRedoes
EndUndoRedoHistory
Fore
SplineSet
298 136 m 1
 372 136 l 1
 372 332 l 1
 441 332 l 1
 471 312 493 278 514 242 c 2
 576 136 l 1
 660 136 l 1
 644 163 630 187 616 209 c 0
 586 257 556 304 518 340 c 1
 591 350 650 388 650 468 c 0
 650 510 634 541 598 563 c 0
 562 585 508 596 435 596 c 2
 298 596 l 1
 298 136 l 1
457 -16 m 0
 581 -16 674 34 740 96 c 0
 804 156 858 242 858 362 c 0
 858 396 854 430 844 462 c 0
 824 530 786 585 740 629 c 0
 674 691 580 742 454 742 c 0
 330 742 236 692 170 630 c 0
 106 570 52 483 52 363 c 0
 52 329 56 295 66 263 c 0
 86 195 123 140 170 96 c 0
 236 34 331 -16 457 -16 c 0
456 42 m 0
 352 42 269 82 213 135 c 0
 159 187 115 264 115 364 c 0
 115 464 159 539 213 591 c 0
 269 643 351 683 454 683 c 0
 558 683 641 642 697 590 c 0
 751 538 795 462 795 362 c 0
 795 260 752 186 698 135 c 0
 642 83 562 42 456 42 c 0
372 392 m 1
 371 536 l 1
 433 536 l 2
 509 536 573 536 573 460 c 0
 573 392 503 392 434 392 c 2
 372 392 l 1
EndSplineSet
EndChar

StartChar: ring
Encoding: 730 730 253
Width: 301
VWidth: 0
Flags: HW
LayerCount: 2
UndoRedoHistory
Layer: 0
Undoes
EndUndoes
Redoes
EndRedoes
EndUndoRedoHistory
UndoRedoHistory
Layer: 1
Undoes
EndUndoes
Redoes
EndRedoes
EndUndoRedoHistory
Fore
SplineSet
150 574 m 0
 164 574 178 577 190 582 c 0
 224 595 255 624 255 670 c 0
 255 683 253 695 247 707 c 0
 232 740 198 765 150 765 c 0
 136 765 121 763 109 758 c 0
 75 745 45 716 45 670 c 0
 45 656 47 644 53 632 c 0
 69 600 102 574 150 574 c 0
150 618 m 0
 118 618 94 638 94 670 c 0
 94 700 120 722 150 722 c 0
 181 722 205 701 205 670 c 0
 205 640 180 618 150 618 c 0
150 513 m 0
EndSplineSet
EndChar

StartChar: s
Encoding: 115 115 254
Width: 447
VWidth: 0
Flags: HW
LayerCount: 2
UndoRedoHistory
Layer: 0
Undoes
EndUndoes
Redoes
EndRedoes
EndUndoRedoHistory
UndoRedoHistory
Layer: 1
Undoes
EndUndoes
Redoes
EndRedoes
EndUndoRedoHistory
Fore
SplineSet
56 386 m 0
 53 226 326 235 326 130 c 0
 326 78 281 58 226 58 c 0
 176 58 117 76 79 106 c 1
 54 36 l 1
 91 16 154 -11 232 -11 c 0
 337 -11 404 50 406 138 c 0
 410 297 136 294 136 388 c 0
 136 430 172 454 230 454 c 0
 272 454 324 438 366 416 c 1
 388 484 l 1
 346 506 292 524 226 524 c 0
 123 524 58 471 56 386 c 0
228 513 m 0
228 0 m 0
EndSplineSet
EndChar

StartChar: s.alt
Encoding: 65543 -1 255
Width: 500
VWidth: 0
Flags: HW
LayerCount: 2
UndoRedoHistory
Layer: 0
Undoes
EndUndoes
Redoes
EndRedoes
EndUndoRedoHistory
UndoRedoHistory
Layer: 1
Undoes
EndUndoes
Redoes
EndRedoes
EndUndoRedoHistory
Fore
SplineSet
276 -13 m 0
 370 -13 451 26 451 142 c 0
 451 246 355 274 275 298 c 0
 227 312 142 327 142 387 c 0
 142 441 190 458 246 458 c 0
 302 458 366 440 394 422 c 1
 417 483 l 1
 368 513 306 528 247 528 c 0
 147 528 57 484 57 386 c 0
 57 286 142 256 224 232 c 0
 278 216 370 202 370 136 c 0
 370 75 322 56 264 56 c 0
 198 56 118 86 80 114 c 1
 57 45 l 1
 110 13 198 -13 276 -13 c 0
250 0 m 0
250 0 m 0
EndSplineSet
EndChar

StartChar: section
Encoding: 167 167 259
Width: 547
VWidth: 0
Flags: HW
LayerCount: 2
UndoRedoHistory
Layer: 0
Undoes
EndUndoes
Redoes
EndRedoes
EndUndoRedoHistory
UndoRedoHistory
Layer: 1
Undoes
EndUndoes
Redoes
EndRedoes
EndUndoRedoHistory
Fore
SplineSet
241 -24 m 0
 297 -24 348 -9 382 15 c 0
 415 38 444 73 444 126 c 0
 444 189 404 218 362 240 c 1
 404 266 456 302 456 368 c 0
 456 386 451 402 443 416 c 0
 406 478 318 500 253 536 c 0
 224 552 196 570 196 610 c 0
 196 664 250 678 304 678 c 0
 346 678 387 666 417 652 c 1
 416 726 l 1
 378 738 348 746 302 746 c 0
 202 746 110 708 110 608 c 0
 110 544 145 514 187 488 c 1
 143 466 92 429 92 364 c 0
 92 348 95 334 101 320 c 0
 120 274 163 247 210 227 c 2
 252 209 l 2
 268 202 284 196 297 190 c 0
 326 176 358 162 358 122 c 0
 358 111 356 101 350 91 c 0
 332 59 288 44 238 44 c 0
 186 44 147 58 105 76 c 1
 106 2 l 1
 144 -14 190 -24 241 -24 c 0
296 274 m 1
 279 281 263 288 249 294 c 0
 217 308 181 326 181 370 c 0
 181 415 218 440 248 456 c 1
 288 434 366 424 366 362 c 0
 366 352 364 342 360 334 c 0
 346 308 320 290 296 274 c 1
EndSplineSet
EndChar

StartChar: semicolon
Encoding: 59 59 260
Width: 269
VWidth: 0
Flags: HW
LayerCount: 2
UndoRedoHistory
Layer: 0
Undoes
EndUndoes
Redoes
EndRedoes
EndUndoRedoHistory
UndoRedoHistory
Layer: 1
Undoes
EndUndoes
Redoes
EndRedoes
EndUndoRedoHistory
Fore
SplineSet
50 -128 m 1
 116 -128 l 1
 197 104 l 1
 103 104 l 1
 50 -128 l 1
80 420 m 1
 188 420 l 1
 188 526 l 1
 103 526 l 1
 80 420 l 1
EndSplineSet
EndChar

StartChar: seven
Encoding: 55 55 261
Width: 597
VWidth: 0
Flags: HW
LayerCount: 2
UndoRedoHistory
Layer: 0
Undoes
EndUndoes
Redoes
EndRedoes
EndUndoRedoHistory
UndoRedoHistory
Layer: 1
Undoes
EndUndoes
Redoes
EndRedoes
EndUndoRedoHistory
Fore
SplineSet
158 0 m 1
 250 0 l 1
 544 664 l 1
 544 710 l 1
 58 710 l 1
 58 638 l 1
 448 638 l 1
 158 0 l 1
EndSplineSet
EndChar

StartChar: six
Encoding: 54 54 262
Width: 623
VWidth: 0
Flags: HW
LayerCount: 2
UndoRedoHistory
Layer: 0
Undoes
EndUndoes
Redoes
EndRedoes
EndUndoRedoHistory
UndoRedoHistory
Layer: 1
Undoes
EndUndoes
Redoes
EndRedoes
EndUndoRedoHistory
Fore
SplineSet
320 -11 m 0
 464 -11 572 89 572 233 c 0
 572 369 486 478 332 478 c 0
 277 478 182 451 150 390 c 1
 180 526 279 645 455 669 c 1
 437 742 l 1
 131 696 50 444 64 250 c 0
 74 120 142 -11 320 -11 c 0
320 64 m 0
 202 64 147 146 147 234 c 0
 147 334 216 410 322 410 c 0
 449 410 488 316 488 230 c 0
 488 128 427 64 320 64 c 0
EndSplineSet
EndChar

StartChar: slash
Encoding: 47 47 263
Width: 357
VWidth: 0
Flags: HW
LayerCount: 2
UndoRedoHistory
Layer: 0
Undoes
EndUndoes
Redoes
EndRedoes
EndUndoRedoHistory
UndoRedoHistory
Layer: 1
Undoes
EndUndoes
Redoes
EndRedoes
EndUndoRedoHistory
Fore
SplineSet
-24 -108 m 1
 58 -108 l 1
 378 726 l 1
 295 726 l 1
 -24 -108 l 1
EndSplineSet
EndChar

StartChar: sterling
Encoding: 163 163 265
Width: 593
VWidth: 0
Flags: HW
LayerCount: 2
UndoRedoHistory
Layer: 0
Undoes
EndUndoes
Redoes
EndRedoes
EndUndoRedoHistory
UndoRedoHistory
Layer: 1
Undoes
EndUndoes
Redoes
EndRedoes
EndUndoRedoHistory
Fore
SplineSet
58 0 m 1
 540 0 l 1
 540 70 l 1
 185 70 l 1
 193 76 200 85 206 97 c 0
 234 153 234 238 234 320 c 2
 234 345 l 1
 399 345 l 1
 399 416 l 1
 233 416 l 1
 232 474 l 1
 232 578 264 654 368 654 c 0
 424 654 470 640 505 618 c 1
 531 678 l 1
 493 708 438 724 366 724 c 0
 190 724 147 605 147 430 c 0
 147 425 148 421 148 416 c 1
 57 416 l 1
 57 345 l 1
 148 345 l 1
 148 220 l 2
 148 136 109 99 57 69 c 1
 58 0 l 1
EndSplineSet
EndChar

StartChar: summation
Encoding: 8721 8721 266
Width: 631
VWidth: 0
Flags: HW
LayerCount: 2
UndoRedoHistory
Layer: 0
Undoes
EndUndoes
Redoes
EndRedoes
EndUndoRedoHistory
UndoRedoHistory
Layer: 1
Undoes
EndUndoes
Redoes
EndRedoes
EndUndoRedoHistory
Fore
SplineSet
28 -164 m 1
 610 -164 l 1
 610 -90 l 1
 147 -90 l 1
 449 280 l 1
 162 640 l 1
 588 640 l 1
 588 712 l 1
 40 712 l 1
 40 664 l 1
 348 276 l 1
 28 -120 l 1
 28 -164 l 1
EndSplineSet
EndChar

StartChar: t
Encoding: 116 116 267
Width: 409
VWidth: 0
Flags: HW
LayerCount: 2
UndoRedoHistory
Layer: 0
Undoes
EndUndoes
Redoes
EndRedoes
EndUndoRedoHistory
UndoRedoHistory
Layer: 1
Undoes
EndUndoes
Redoes
EndRedoes
EndUndoRedoHistory
Fore
SplineSet
116 649 m 1
 116 513 l 1
 12 513 l 1
 12 460 l 1
 114 460 l 1
 114 150 l 2
 114 42 164 -4 280 -4 c 0
 308 -4 364 7 396 18 c 1
 386 79 l 1
 362 70 313 60 290 60 c 0
 225 60 196 87 196 149 c 2
 196 460 l 1
 364 460 l 1
 364 513 l 1
 196 513 l 1
 196 672 l 1
 116 649 l 1
159 322 m 0
277 0 m 0
EndSplineSet
EndChar

StartChar: thorn
Encoding: 254 254 268
Width: 618
VWidth: 0
Flags: HW
LayerCount: 2
UndoRedoHistory
Layer: 0
Undoes
EndUndoes
Redoes
EndRedoes
EndUndoRedoHistory
UndoRedoHistory
Layer: 1
Undoes
EndUndoes
Redoes
EndRedoes
EndUndoRedoHistory
Fore
SplineSet
79 -214 m 1
 162 -214 l 1
 162 68 l 1
 205 16 262 -12 334 -12 c 0
 374 -12 407 -4 437 11 c 0
 519 53 570 142 570 264 c 0
 570 300 565 332 555 364 c 0
 527 458 456 526 334 526 c 0
 254 526 199 491 162 441 c 1
 162 728 l 1
 79 728 l 1
 79 -214 l 1
322 54 m 0
 296 54 273 59 253 69 c 0
 195 97 162 161 162 247 c 0
 162 366 205 458 325 458 c 0
 437 458 482 372 482 260 c 0
 482 148 435 54 322 54 c 0
EndSplineSet
EndChar

StartChar: three
Encoding: 51 51 269
Width: 594
VWidth: 0
Flags: HW
LayerCount: 2
UndoRedoHistory
Layer: 0
Undoes
EndUndoes
Redoes
EndRedoes
EndUndoRedoHistory
UndoRedoHistory
Layer: 1
Undoes
EndUndoes
Redoes
EndRedoes
EndUndoRedoHistory
Fore
SplineSet
260 -12 m 0
 399 -12 524 58 524 196 c 0
 524 303 450 355 360 373 c 1
 438 395 505 445 505 543 c 0
 505 664 397 724 275 724 c 0
 173 724 90 682 60 608 c 1
 110 564 l 1
 142 618 192 653 272 653 c 0
 352 653 413 621 413 542 c 0
 413 434 332 406 223 406 c 2
 192 406 l 1
 192 335 l 1
 231 336 l 2
 343 339 436 307 436 197 c 0
 436 105 357 60 264 60 c 0
 178 60 120 100 96 162 c 1
 54 112 l 1
 72 28 157 -12 260 -12 c 0
EndSplineSet
EndChar

StartChar: tilde
Encoding: 732 732 271
Width: 330
VWidth: 0
Flags: HW
LayerCount: 2
UndoRedoHistory
Layer: 0
Undoes
EndUndoes
Redoes
EndRedoes
EndUndoRedoHistory
UndoRedoHistory
Layer: 1
Undoes
EndUndoes
Redoes
EndRedoes
EndUndoRedoHistory
Fore
SplineSet
7 602 m 1
 60 602 l 1
 64 630 78 644 105 644 c 0
 153 644 184 610 232 610 c 0
 294 610 323 662 329 718 c 1
 275 718 l 1
 271 692 258 672 232 672 c 0
 222 672 212 674 202 678 c 0
 173 688 144 706 106 706 c 0
 44 706 12 660 7 602 c 1
168 513 m 0
EndSplineSet
EndChar

StartChar: trademark
Encoding: 8482 8482 272
Width: 933
VWidth: 0
Flags: HW
LayerCount: 2
UndoRedoHistory
Layer: 0
Undoes
EndUndoes
Redoes
EndRedoes
EndUndoRedoHistory
UndoRedoHistory
Layer: 1
Undoes
EndUndoes
Redoes
EndRedoes
EndUndoRedoHistory
Fore
SplineSet
410 343 m 1
 470 343 l 1
 470 640 l 1
 600 343 l 1
 640 343 l 1
 776 640 l 1
 776 343 l 1
 838 343 l 1
 838 726 l 1
 748 726 l 1
 622 450 l 1
 504 726 l 1
 410 726 l 1
 410 343 l 1
162 343 m 1
 224 343 l 1
 224 675 l 1
 354 675 l 1
 354 726 l 1
 35 726 l 1
 35 675 l 1
 162 675 l 1
 162 343 l 1
EndSplineSet
EndChar

StartChar: two
Encoding: 50 50 273
Width: 623
VWidth: 0
Flags: HW
LayerCount: 2
UndoRedoHistory
Layer: 0
Undoes
EndUndoes
Redoes
EndRedoes
EndUndoRedoHistory
UndoRedoHistory
Layer: 1
Undoes
EndUndoes
Redoes
EndRedoes
EndUndoRedoHistory
Fore
SplineSet
50 0 m 1
 518 0 l 1
 518 72 l 1
 152 72 l 1
 203 119 261 171 312 221 c 0
 387 295 516 403 516 539 c 0
 516 662 416 724 292 724 c 0
 178 724 97 672 66 588 c 1
 115 539 l 1
 143 602 197 654 286 654 c 0
 365 654 428 614 428 536 c 0
 428 443 344 363 292 308 c 0
 216 228 127 149 49 74 c 1
 50 0 l 1
EndSplineSet
EndChar

StartChar: u
Encoding: 117 117 274
Width: 598
VWidth: 0
Flags: HW
LayerCount: 2
UndoRedoHistory
Layer: 0
Undoes
EndUndoes
Redoes
EndRedoes
EndUndoRedoHistory
UndoRedoHistory
Layer: 1
Undoes
EndUndoes
Redoes
EndRedoes
EndUndoRedoHistory
Fore
SplineSet
425 513 m 1
 425 214 l 2
 425 116 356 58 274 58 c 0
 214 58 153 84 155 182 c 2
 158 298 l 2
 162 471 128 513 128 513 c 1
 46 500 l 1
 46 500 80 451 76 291 c 2
 72 182 l 2
 68 40 164 -11 261 -11 c 0
 340 -11 400 20 438 82 c 1
 444 22 492 -17 570 -2 c 1
 578 68 l 1
 532 58 507 78 507 151 c 2
 507 513 l 1
 425 513 l 1
542 5 m 0
300 513 m 0
EndSplineSet
EndChar

StartChar: u.alt
Encoding: 65544 -1 275
Width: 606
VWidth: 0
Flags: HW
LayerCount: 2
UndoRedoHistory
Layer: 0
Undoes
EndUndoes
Redoes
EndRedoes
EndUndoRedoHistory
UndoRedoHistory
Layer: 1
Undoes
EndUndoes
Redoes
EndRedoes
EndUndoRedoHistory
Fore
SplineSet
265 -12 m 0
 344 -12 403 20 444 78 c 1
 458 22 508 -2 556 -2 c 1
 573 70 l 1
 547 70 511 85 511 143 c 2
 511 513 l 1
 428 513 l 1
 428 209 l 2
 428 111 350 59 278 59 c 0
 218 59 162 92 162 190 c 2
 162 298 l 2
 162 456 142 513 142 513 c 1
 60 513 l 1
 60 513 80 435 80 291 c 2
 80 190 l 2
 80 48 168 -12 265 -12 c 0
546 5 m 0
304 0 m 0
EndSplineSet
EndChar

StartChar: underscore
Encoding: 95 95 280
Width: 498
VWidth: 0
Flags: HW
LayerCount: 2
UndoRedoHistory
Layer: 0
Undoes
EndUndoes
Redoes
EndRedoes
EndUndoRedoHistory
UndoRedoHistory
Layer: 1
Undoes
EndUndoes
Redoes
EndRedoes
EndUndoRedoHistory
Fore
SplineSet
-2 -136 m 1
 499 -136 l 1
 499 -72 l 1
 -2 -72 l 1
 -2 -136 l 1
EndSplineSet
EndChar

StartChar: uni00B2
Encoding: 178 178 283
Width: 594
VWidth: 0
Flags: HW
LayerCount: 2
UndoRedoHistory
Layer: 0
Undoes
EndUndoes
Redoes
EndRedoes
EndUndoRedoHistory
UndoRedoHistory
Layer: 1
Undoes
EndUndoes
Redoes
EndRedoes
EndUndoRedoHistory
Fore
SplineSet
142 302 m 1
 414 302 l 1
 414 361 l 1
 232 361 l 1
 278 401 325 440 362 484 c 0
 389 516 415 554 415 606 c 0
 415 624 411 640 405 654 c 0
 385 694 343 720 284 720 c 0
 215 720 168 685 146 635 c 1
 188 596 l 1
 204 631 232 662 280 662 c 0
 320 662 350 644 350 606 c 0
 350 592 345 576 335 559 c 0
 325 542 310 523 292 503 c 0
 248 454 195 406 142 358 c 1
 142 302 l 1
EndSplineSet
EndChar

StartChar: uni00B3
Encoding: 179 179 284
Width: 594
VWidth: 0
Flags: HW
LayerCount: 2
UndoRedoHistory
Layer: 0
Undoes
EndUndoes
Redoes
EndRedoes
EndUndoRedoHistory
UndoRedoHistory
Layer: 1
Undoes
EndUndoes
Redoes
EndRedoes
EndUndoRedoHistory
Fore
SplineSet
240 293 m 0
 260 293 280 296 298 302 c 0
 347 318 390 354 390 417 c 0
 390 469 363 500 326 516 c 1
 357 532 380 562 380 606 c 0
 380 624 376 641 368 655 c 0
 347 694 304 720 244 720 c 0
 192 720 146 697 118 670 c 1
 146 622 l 1
 170 642 201 661 242 661 c 0
 282 661 313 645 313 605 c 0
 313 555 264 544 214 544 c 2
 190 544 l 1
 190 485 l 1
 203 485 l 2
 207 485 214 486 218 486 c 0
 274 486 326 474 326 418 c 0
 326 372 285 350 238 350 c 0
 206 350 176 364 148 390 c 1
 118 342 l 1
 146 314 186 293 240 293 c 0
EndSplineSet
EndChar

StartChar: uni00B9
Encoding: 185 185 285
Width: 594
VWidth: 0
Flags: HW
LayerCount: 2
UndoRedoHistory
Layer: 0
Undoes
EndUndoes
Redoes
EndRedoes
EndUndoRedoHistory
UndoRedoHistory
Layer: 1
Undoes
EndUndoes
Redoes
EndRedoes
EndUndoRedoHistory
Fore
SplineSet
135 302 m 1
 318 302 l 1
 318 360 l 1
 256 360 l 1
 256 714 l 1
 204 706 l 1
 178 690 154 676 120 666 c 1
 120 602 l 1
 145 612 174 624 196 636 c 1
 196 584 l 2
 196 558 196 534 196 504 c 2
 196 362 l 1
 135 362 l 1
 135 302 l 1
EndSplineSet
EndChar

StartChar: uni0237
Encoding: 567 567 312
Width: 250
VWidth: 0
Flags: HW
LayerCount: 2
UndoRedoHistory
Layer: 0
Undoes
EndUndoes
Redoes
EndRedoes
EndUndoRedoHistory
UndoRedoHistory
Layer: 1
Undoes
EndUndoes
Redoes
EndRedoes
EndUndoRedoHistory
Fore
SplineSet
10 -214 m 0
 33 -214 53 -212 70 -204 c 0
 148 -170 170 -76 170 36 c 2
 170 513 l 1
 88 513 l 1
 88 16 l 2
 88 -72 69 -142 -9 -142 c 0
 -24 -142 -36 -138 -51 -136 c 1
 -50 -208 l 1
 -31 -212 -12 -214 10 -214 c 0
126 513 m 0
EndSplineSet
EndChar

StartChar: uni0307
Encoding: 775 775 313
Width: 261
VWidth: 0
Flags: HW
LayerCount: 2
UndoRedoHistory
Layer: 0
Undoes
EndUndoes
Redoes
EndRedoes
EndUndoRedoHistory
UndoRedoHistory
Layer: 1
Undoes
EndUndoes
Redoes
EndRedoes
EndUndoRedoHistory
Fore
SplineSet
92 623 m 1
 172 623 l 1
 172 704 l 1
 92 704 l 1
 92 623 l 1
132 513 m 0
EndSplineSet
EndChar

StartChar: uni0311
Encoding: 785 785 314
Width: 313
VWidth: 0
Flags: HW
LayerCount: 2
UndoRedoHistory
Layer: 0
Undoes
EndUndoes
Redoes
EndRedoes
EndUndoRedoHistory
UndoRedoHistory
Layer: 1
Undoes
EndUndoes
Redoes
EndRedoes
EndUndoRedoHistory
Fore
SplineSet
16 609 m 1
 60 609 l 1
 68 653 103 674 154 674 c 0
 205 674 245 651 255 609 c 1
 298 609 l 1
 292 686 241 727 158 727 c 0
 72 727 22 689 16 609 c 1
159 513 m 0
EndSplineSet
EndChar

StartChar: uni03A9
Encoding: 937 937 315
Width: 800
VWidth: 0
Flags: HW
LayerCount: 2
UndoRedoHistory
Layer: 0
Undoes
EndUndoes
Redoes
EndRedoes
EndUndoRedoHistory
UndoRedoHistory
Layer: 1
Undoes
EndUndoes
Redoes
EndRedoes
EndUndoRedoHistory
Fore
SplineSet
52 0 m 1
 322 0 l 1
 321 60 l 1
 295 77 272 98 250 120 c 0
 193 180 146 266 146 380 c 0
 146 420 153 457 165 491 c 0
 199 584 278 654 402 654 c 0
 444 654 480 647 511 632 c 0
 597 590 652 502 652 377 c 0
 652 343 647 311 638 280 c 0
 610 184 549 110 474 60 c 1
 476 0 l 1
 737 0 l 1
 742 69 l 1
 578 68 l 1
 622 102 661 148 690 199 c 0
 718 249 740 310 740 386 c 0
 740 490 703 571 650 627 c 0
 596 684 512 724 404 724 c 0
 298 724 213 687 156 633 c 0
 98 579 57 497 57 388 c 0
 57 354 61 320 69 289 c 0
 93 193 148 120 218 68 c 1
 46 69 l 1
 52 0 l 1
10 0 m 0
EndSplineSet
EndChar

StartChar: uni03BC
Encoding: 956 956 316
Width: 607
VWidth: 0
Flags: HW
LayerCount: 2
UndoRedoHistory
Layer: 0
Undoes
EndUndoes
Redoes
EndRedoes
EndUndoRedoHistory
UndoRedoHistory
Layer: 1
Undoes
EndUndoes
Redoes
EndRedoes
EndUndoRedoHistory
Fore
SplineSet
78 -101 m 1
 161 -101 l 1
 161 16 l 1
 189 -1 224 -12 270 -12 c 0
 344 -12 401 16 439 68 c 1
 440 0 l 1
 526 0 l 1
 522 42 522 78 522 123 c 2
 522 513 l 1
 439 513 l 1
 439 218 l 2
 439 196 435 175 429 155 c 0
 410 98 365 54 289 54 c 0
 198 54 161 108 161 200 c 2
 161 513 l 1
 78 513 l 1
 78 -101 l 1
EndSplineSet
EndChar

StartChar: uni2074
Encoding: 8308 8308 317
Width: 447
VWidth: 0
Flags: HW
LayerCount: 2
UndoRedoHistory
Layer: 0
Undoes
EndUndoes
Redoes
EndRedoes
EndUndoRedoHistory
UndoRedoHistory
Layer: 1
Undoes
EndUndoes
Redoes
EndRedoes
EndUndoRedoHistory
Fore
SplineSet
178 308 m 1
 238 308 l 1
 238 402 l 1
 298 402 l 1
 294 455 l 1
 239 455 l 1
 239 706 l 1
 172 706 l 1
 -11 447 l 1
 -11 402 l 1
 178 402 l 1
 178 308 l 1
58 455 m 1
 178 622 l 1
 178 455 l 1
 58 455 l 1
EndSplineSet
EndChar

StartChar: uniF6C3
Encoding: 65545 -1 318
Width: 298
VWidth: 0
Flags: HW
LayerCount: 2
UndoRedoHistory
Layer: 0
Undoes
EndUndoes
Redoes
EndRedoes
EndUndoRedoHistory
UndoRedoHistory
Layer: 1
Undoes
EndUndoes
Redoes
EndRedoes
EndUndoRedoHistory
Fore
SplineSet
55 -302 m 1
 120 -302 l 1
 202 -70 l 1
 108 -70 l 1
 55 -302 l 1
EndSplineSet
EndChar

StartChar: uniFB01
Encoding: 64257 64257 319
Width: 601
VWidth: 0
Flags: HW
LayerCount: 2
UndoRedoHistory
Layer: 0
Undoes
EndUndoes
Redoes
EndRedoes
EndUndoRedoHistory
UndoRedoHistory
Layer: 1
Undoes
EndUndoes
Redoes
EndRedoes
EndUndoRedoHistory
Fore
SplineSet
123 0 m 1
 206 0 l 1
 206 460 l 1
 434 460 l 1
 434 0 l 1
 517 0 l 1
 517 513 l 1
 206 513 l 1
 206 581 l 2
 206 649 218 690 286 690 c 0
 304 690 329 687 342 682 c 1
 340 746 l 1
 318 751 300 757 272 757 c 0
 160 757 126 679 124 569 c 2
 123 513 l 1
 22 513 l 1
 22 460 l 1
 123 460 l 1
 123 0 l 1
438 654 m 1
 515 654 l 1
 515 731 l 1
 438 731 l 1
 438 654 l 1
EndSplineSet
EndChar

StartChar: v
Encoding: 118 118 321
Width: 530
VWidth: 0
Flags: HW
LayerCount: 2
UndoRedoHistory
Layer: 0
Undoes
EndUndoes
Redoes
EndRedoes
EndUndoRedoHistory
UndoRedoHistory
Layer: 1
Undoes
EndUndoes
Redoes
EndRedoes
EndUndoRedoHistory
Fore
SplineSet
434 513 m 1
 296 168 l 1
 290 154 284 132 268 82 c 1
 260 109 250 145 240 168 c 2
 99 513 l 1
 8 513 l 1
 222 0 l 1
 306 0 l 1
 523 513 l 1
 434 513 l 1
EndSplineSet
EndChar

StartChar: w
Encoding: 119 119 322
Width: 843
VWidth: 0
Flags: HW
LayerCount: 2
UndoRedoHistory
Layer: 0
Undoes
EndUndoes
Redoes
EndRedoes
EndUndoRedoHistory
UndoRedoHistory
Layer: 1
Undoes
EndUndoes
Redoes
EndRedoes
EndUndoRedoHistory
Fore
SplineSet
746 513 m 1
 626 144 l 1
 620 128 616 109 610 94 c 1
 605 109 600 129 595 143 c 2
 471 513 l 1
 388 513 l 1
 256 138 l 1
 250 124 245 107 240 93 c 1
 235 109 231 128 226 142 c 2
 101 513 l 1
 13 513 l 1
 196 0 l 1
 276 0 l 1
 426 416 l 1
 567 0 l 1
 647 0 l 1
 831 513 l 1
 746 513 l 1
429 513 m 0
EndSplineSet
EndChar

StartChar: x
Encoding: 120 120 323
Width: 542
VWidth: 0
Flags: HW
LayerCount: 2
UndoRedoHistory
Layer: 0
Undoes
EndUndoes
Redoes
EndRedoes
EndUndoRedoHistory
UndoRedoHistory
Layer: 1
Undoes
EndUndoes
Redoes
EndRedoes
EndUndoRedoHistory
Fore
SplineSet
424 513 m 1
 279 313 l 1
 135 513 l 1
 34 513 l 1
 224 257 l 1
 24 0 l 1
 119 0 l 1
 271 204 l 1
 419 0 l 1
 520 0 l 1
 324 259 l 1
 513 513 l 1
 424 513 l 1
EndSplineSet
EndChar

StartChar: y
Encoding: 121 121 324
Width: 592
VWidth: 0
Flags: HW
LayerCount: 2
UndoRedoHistory
Layer: 0
Undoes
EndUndoes
Redoes
EndRedoes
EndUndoRedoHistory
UndoRedoHistory
Layer: 1
Undoes
EndUndoes
Redoes
EndRedoes
EndUndoRedoHistory
Fore
SplineSet
431 72 m 1
 431 -22 l 2
 431 -116 360 -178 256 -178 c 0
 212 -178 151 -163 105 -140 c 1
 96 -216 l 1
 146 -234 214 -247 264 -247 c 0
 414 -247 513 -154 513 -12 c 2
 513 513 l 1
 431 72 l 1
431 513 m 1
 431 214 l 2
 431 116 362 58 280 58 c 0
 220 58 159 84 161 182 c 2
 164 298 l 2
 168 471 134 513 134 513 c 1
 52 500 l 1
 52 500 86 451 82 291 c 2
 78 182 l 2
 74 40 170 -11 267 -11 c 0
 346 -11 406 20 444 82 c 1
 513 151 l 1
 513 513 l 1
 431 513 l 1
283 513 m 0
EndSplineSet
EndChar

StartChar: yen
Encoding: 165 165 327
Width: 632
VWidth: 0
Flags: HW
LayerCount: 2
UndoRedoHistory
Layer: 0
Undoes
EndUndoes
Redoes
EndRedoes
EndUndoRedoHistory
UndoRedoHistory
Layer: 1
Undoes
EndUndoes
Redoes
EndRedoes
EndUndoRedoHistory
Fore
SplineSet
74 142 m 1
 551 142 l 1
 551 212 l 1
 348 212 l 1
 348 287 l 1
 550 287 l 1
 550 358 l 1
 70 358 l 1
 70 287 l 1
 277 287 l 1
 277 212 l 1
 74 212 l 1
 74 142 l 1
EndSplineSet
Refer: 80 89 N 1 0 0 1 0 0 2
EndChar

StartChar: z
Encoding: 122 122 328
Width: 488
VWidth: 0
Flags: HW
LayerCount: 2
UndoRedoHistory
Layer: 0
Undoes
EndUndoes
Redoes
EndRedoes
EndUndoRedoHistory
UndoRedoHistory
Layer: 1
Undoes
EndUndoes
Redoes
EndRedoes
EndUndoRedoHistory
Fore
SplineSet
53 513 m 1
 53 446 l 1
 340 446 l 1
 40 44 l 1
 40 0 l 1
 460 0 l 1
 460 67 l 1
 152 67 l 1
 452 470 l 1
 452 513 l 1
 53 513 l 1
249 0 m 0
EndSplineSet
EndChar

StartChar: zero
Encoding: 48 48 332
Width: 608
VWidth: 0
Flags: HW
LayerCount: 2
UndoRedoHistory
Layer: 0
Undoes
EndUndoes
Redoes
EndRedoes
EndUndoRedoHistory
UndoRedoHistory
Layer: 1
Undoes
EndUndoes
Redoes
EndRedoes
EndUndoRedoHistory
Fore
SplineSet
304 60 m 0
 162 60 141 211 141 355 c 0
 141 492 171 656 304 656 c 0
 446 656 466 498 466 355 c 0
 466 220 434 60 304 60 c 0
304 -12 m 0
 494 -12 558 163 558 355 c 0
 558 559 506 726 304 726 c 0
 112 726 52 551 52 355 c 0
 52 159 110 -12 304 -12 c 0
EndSplineSet
EndChar
